STARTFONT 2.1
FONT -Adobe-Times-Medium-I-Normal--20-140-100-100-P-94-ISO10646-1
SIZE 14 100 100
FONTBOUNDINGBOX 23 30 -2 -9
COMMENT $XFree86$
COMMENT ISO10646-1 extension by Markus Kuhn <mkuhn@acm.org>, 2001-03-20
COMMENT 
COMMENT +
COMMENT  Copyright 1984-1989, 1994 Adobe Systems Incorporated.
COMMENT  Copyright 1988, 1994 Digital Equipment Corporation.
COMMENT
COMMENT  Adobe is a trademark of Adobe Systems Incorporated which may be
COMMENT  registered in certain jurisdictions.
COMMENT  Permission to use these trademarks is hereby granted only in
COMMENT  association with the images described in this file.
COMMENT
COMMENT  Permission to use, copy, modify, distribute and sell this software
COMMENT  and its documentation for any purpose and without fee is hereby
COMMENT  granted, provided that the above copyright notices appear in all
COMMENT  copies and that both those copyright notices and this permission
COMMENT  notice appear in supporting documentation, and that the names of
COMMENT  Adobe Systems and Digital Equipment Corporation not be used in
COMMENT  advertising or publicity pertaining to distribution of the software
COMMENT  without specific, written prior permission.  Adobe Systems and
COMMENT  Digital Equipment Corporation make no representations about the
COMMENT  suitability of this software for any purpose.  It is provided "as
COMMENT  is" without express or implied warranty.
COMMENT -
STARTPROPERTIES 26
FOUNDRY "Adobe"
FAMILY_NAME "Times"
WEIGHT_NAME "Medium"
SLANT "I"
SETWIDTH_NAME "Normal"
ADD_STYLE_NAME ""
PIXEL_SIZE 20
POINT_SIZE 140
RESOLUTION_X 100
RESOLUTION_Y 100
SPACING "P"
AVERAGE_WIDTH 94
CHARSET_REGISTRY "ISO10646"
CHARSET_ENCODING "1"
CAP_HEIGHT 13
X_HEIGHT 9
FONT_ASCENT 15
FONT_DESCENT 4
FACE_NAME "Times Italic"
COPYRIGHT "Copyright (c) 1984, 1987 Adobe Systems Incorporated. All Rights Reserved. Copyright (c) 1988, 1991 Digital Equipment Corporation. All Rights Reserved."

STARTCHAR char0
ENCODING 0
SWIDTH 722 0
DWIDTH 13 0
BBX 13 13 1 0
BITMAP
AAA8
0000
8008
0000
8008
0000
8008
0000
8008
0000
8008
0000
AAA8
ENDCHAR
STARTCHAR space
ENCODING 32
SWIDTH 250 0
DWIDTH 4 0
BBX 1 1 0 0
BITMAP
00
ENDCHAR
STARTCHAR exclam
ENCODING 33
SWIDTH 333 0
DWIDTH 6 0
BBX 5 13 1 0
BITMAP
18
18
18
30
30
30
20
60
40
40
00
C0
C0
ENDCHAR
STARTCHAR quotedbl
ENCODING 34
SWIDTH 420 0
DWIDTH 8 0
BBX 6 4 3 9
BITMAP
CC
CC
CC
88
ENDCHAR
STARTCHAR numbersign
ENCODING 35
SWIDTH 500 0
DWIDTH 9 0
BBX 10 13 0 0
BITMAP
0900
0900
0900
0900
7FC0
1200
1200
1200
FF80
2400
2400
2400
2400
ENDCHAR
STARTCHAR dollar
ENCODING 36
SWIDTH 500 0
DWIDTH 9 0
BBX 9 16 0 -2
BITMAP
0200
0200
1F00
3580
3480
3C00
1C00
0E00
0F00
0B00
1300
9300
D600
7C00
2000
2000
ENDCHAR
STARTCHAR percent
ENCODING 37
SWIDTH 833 0
DWIDTH 15 0
BBX 14 13 1 0
BITMAP
3830
77F0
E460
C4C0
C580
C900
7338
0674
04E4
0CC4
18C4
10C8
3070
ENDCHAR
STARTCHAR ampersand
ENCODING 38
SWIDTH 778 0
DWIDTH 14 0
BBX 12 13 1 0
BITMAP
0300
0780
0480
0500
0700
0C00
1CF0
3660
62C0
C300
C300
E7B0
7CE0
ENDCHAR
STARTCHAR quotesingle
ENCODING 39
SWIDTH 214 0
DWIDTH 4 0
BBX 2 4 3 9
BITMAP
C0
C0
C0
80
ENDCHAR
STARTCHAR parenleft
ENCODING 40
SWIDTH 333 0
DWIDTH 6 0
BBX 5 17 2 -4
BITMAP
08
10
30
20
60
60
C0
C0
C0
80
80
80
C0
C0
40
40
20
ENDCHAR
STARTCHAR parenright
ENCODING 41
SWIDTH 333 0
DWIDTH 6 0
BBX 5 17 0 -4
BITMAP
20
10
10
18
18
08
08
08
18
18
10
30
30
20
60
40
80
ENDCHAR
STARTCHAR asterisk
ENCODING 42
SWIDTH 500 0
DWIDTH 9 0
BBX 7 8 2 5
BITMAP
10
10
D6
7C
7C
D6
10
10
ENDCHAR
STARTCHAR plus
ENCODING 43
SWIDTH 675 0
DWIDTH 13 0
BBX 9 9 2 0
BITMAP
0800
0800
0800
0800
FF80
0800
0800
0800
0800
ENDCHAR
STARTCHAR comma
ENCODING 44
SWIDTH 250 0
DWIDTH 4 0
BBX 3 4 1 -2
BITMAP
60
60
60
C0
ENDCHAR
STARTCHAR hyphen
ENCODING 45
SWIDTH 333 0
DWIDTH 6 0
BBX 4 2 1 4
BITMAP
F0
F0
ENDCHAR
STARTCHAR period
ENCODING 46
SWIDTH 250 0
DWIDTH 4 0
BBX 2 2 1 0
BITMAP
C0
C0
ENDCHAR
STARTCHAR slash
ENCODING 47
SWIDTH 278 0
DWIDTH 5 0
BBX 5 13 1 0
BITMAP
08
08
18
10
10
30
20
60
60
40
C0
80
80
ENDCHAR
STARTCHAR zero
ENCODING 48
SWIDTH 500 0
DWIDTH 9 0
BBX 9 13 1 0
BITMAP
0F00
1980
3180
3180
6180
6180
6300
C300
C300
C600
C600
CC00
7800
ENDCHAR
STARTCHAR one
ENCODING 49
SWIDTH 500 0
DWIDTH 9 0
BBX 6 13 2 0
BITMAP
3C
0C
0C
0C
18
18
18
18
30
30
30
30
FC
ENDCHAR
STARTCHAR two
ENCODING 50
SWIDTH 500 0
DWIDTH 9 0
BBX 8 13 1 0
BITMAP
1E
3F
43
03
03
06
04
0C
18
30
62
FE
FE
ENDCHAR
STARTCHAR three
ENCODING 51
SWIDTH 500 0
DWIDTH 9 0
BBX 9 13 1 0
BITMAP
1F00
3180
0180
0180
0300
1C00
0600
0300
0300
0300
C700
CE00
7800
ENDCHAR
STARTCHAR four
ENCODING 52
SWIDTH 500 0
DWIDTH 9 0
BBX 8 13 1 0
BITMAP
01
03
07
0B
13
26
46
86
FF
FF
0C
0C
0C
ENDCHAR
STARTCHAR five
ENCODING 53
SWIDTH 500 0
DWIDTH 9 0
BBX 9 13 1 0
BITMAP
1F80
1F00
1000
3000
3C00
3E00
0700
0300
0300
0300
0600
CC00
F800
ENDCHAR
STARTCHAR six
ENCODING 54
SWIDTH 500 0
DWIDTH 9 0
BBX 9 13 1 0
BITMAP
0380
0E00
1800
3000
6000
FE00
E700
C300
C300
C300
C300
6600
3C00
ENDCHAR
STARTCHAR seven
ENCODING 55
SWIDTH 500 0
DWIDTH 9 0
BBX 8 13 2 0
BITMAP
7F
FF
86
04
0C
08
18
10
30
60
40
C0
80
ENDCHAR
STARTCHAR eight
ENCODING 56
SWIDTH 500 0
DWIDTH 9 0
BBX 9 13 1 0
BITMAP
1F00
3180
3180
3180
3B00
1C00
3E00
6700
C300
C300
C300
E600
7C00
ENDCHAR
STARTCHAR nine
ENCODING 57
SWIDTH 500 0
DWIDTH 9 0
BBX 9 13 1 0
BITMAP
0E00
3B00
3180
6180
6180
6180
6180
7300
3F00
0600
0C00
3800
E000
ENDCHAR
STARTCHAR colon
ENCODING 58
SWIDTH 333 0
DWIDTH 6 0
BBX 3 8 2 0
BITMAP
60
60
00
00
00
00
C0
C0
ENDCHAR
STARTCHAR semicolon
ENCODING 59
SWIDTH 333 0
DWIDTH 6 0
BBX 5 10 1 -2
BITMAP
18
18
00
00
00
00
60
60
60
C0
ENDCHAR
STARTCHAR less
ENCODING 60
SWIDTH 675 0
DWIDTH 13 0
BBX 9 8 1 0
BITMAP
0180
0600
1800
6000
E000
3800
0E00
0300
ENDCHAR
STARTCHAR equal
ENCODING 61
SWIDTH 675 0
DWIDTH 13 0
BBX 8 4 2 2
BITMAP
FF
00
00
FF
ENDCHAR
STARTCHAR greater
ENCODING 62
SWIDTH 675 0
DWIDTH 13 0
BBX 9 8 2 0
BITMAP
6000
3800
0E00
0380
0300
0C00
3000
C000
ENDCHAR
STARTCHAR question
ENCODING 63
SWIDTH 500 0
DWIDTH 9 0
BBX 6 13 2 0
BITMAP
38
6C
64
0C
0C
18
30
60
60
40
00
C0
C0
ENDCHAR
STARTCHAR at
ENCODING 64
SWIDTH 920 0
DWIDTH 17 0
BBX 15 15 1 -3
BITMAP
03F0
0E18
1804
3006
61B2
6362
C662
CC62
CCC6
CCC4
CDD8
E770
6000
3818
0FE0
ENDCHAR
STARTCHAR A
ENCODING 65
SWIDTH 611 0
DWIDTH 11 0
BBX 11 13 0 0
BITMAP
00C0
01C0
01C0
02C0
06C0
04C0
0CC0
08C0
1FC0
30C0
20C0
60C0
F1E0
ENDCHAR
STARTCHAR B
ENCODING 66
SWIDTH 611 0
DWIDTH 12 0
BBX 11 13 1 0
BITMAP
3F80
18E0
1860
1860
3060
31C0
3F00
3180
60C0
60C0
61C0
6380
FE00
ENDCHAR
STARTCHAR C
ENCODING 67
SWIDTH 667 0
DWIDTH 12 0
BBX 12 13 2 0
BITMAP
03D0
0C70
3820
3020
6000
6000
E000
C000
C000
C000
4040
6180
3E00
ENDCHAR
STARTCHAR D
ENCODING 68
SWIDTH 722 0
DWIDTH 14 0
BBX 13 13 1 0
BITMAP
3FC0
1870
1838
1818
3018
3018
3038
3030
6070
6060
60C0
6380
FE00
ENDCHAR
STARTCHAR E
ENCODING 69
SWIDTH 611 0
DWIDTH 11 0
BBX 10 13 1 0
BITMAP
3FC0
18C0
1840
1840
3100
3100
3E00
3200
6200
6040
6040
6180
FF80
ENDCHAR
STARTCHAR F
ENCODING 70
SWIDTH 611 0
DWIDTH 11 0
BBX 11 13 1 0
BITMAP
3FE0
1860
1820
1820
3080
3080
3F00
3100
6100
6000
6000
6000
F000
ENDCHAR
STARTCHAR G
ENCODING 71
SWIDTH 722 0
DWIDTH 14 0
BBX 12 13 2 0
BITMAP
03D0
0C70
3820
3020
6000
6000
E000
C1F0
C0C0
C0C0
4180
6180
3F00
ENDCHAR
STARTCHAR H
ENCODING 72
SWIDTH 722 0
DWIDTH 13 0
BBX 13 13 1 0
BITMAP
3C78
1830
1830
1830
3060
3060
3FE0
3060
60C0
60C0
60C0
60C0
F1E0
ENDCHAR
STARTCHAR I
ENCODING 73
SWIDTH 333 0
DWIDTH 6 0
BBX 6 13 1 0
BITMAP
3C
18
18
18
30
30
30
30
60
60
60
60
F0
ENDCHAR
STARTCHAR J
ENCODING 74
SWIDTH 444 0
DWIDTH 7 0
BBX 8 13 0 0
BITMAP
0F
06
06
06
0C
0C
0C
0C
18
18
D8
D8
70
ENDCHAR
STARTCHAR K
ENCODING 75
SWIDTH 667 0
DWIDTH 13 0
BBX 12 13 2 0
BITMAP
3CF0
1860
18C0
1980
3200
3400
3C00
3600
6300
6300
6180
61C0
F3E0
ENDCHAR
STARTCHAR L
ENCODING 76
SWIDTH 556 0
DWIDTH 10 0
BBX 10 13 1 0
BITMAP
3C00
1800
1800
1800
3000
3000
3000
3000
6000
6040
6040
6180
FF80
ENDCHAR
STARTCHAR M
ENCODING 77
SWIDTH 833 0
DWIDTH 16 0
BBX 16 13 1 0
BITMAP
3C0F
1C0E
1C1E
1C16
1624
366C
364C
26CC
268C
6718
4318
4218
E03C
ENDCHAR
STARTCHAR N
ENCODING 78
SWIDTH 667 0
DWIDTH 12 0
BBX 14 13 0 0
BITMAP
3C3C
0C08
1E08
1618
1710
1310
3330
31B0
21A0
21E0
60E0
60C0
F040
ENDCHAR
STARTCHAR O
ENCODING 79
SWIDTH 722 0
DWIDTH 14 0
BBX 12 13 2 0
BITMAP
03C0
0C60
3830
3030
7030
6030
E070
C060
C0E0
C0C0
41C0
6380
3E00
ENDCHAR
STARTCHAR P
ENCODING 80
SWIDTH 611 0
DWIDTH 11 0
BBX 11 13 1 0
BITMAP
3FC0
18E0
1860
1860
30E0
31C0
3F00
3000
6000
6000
6000
6000
F000
ENDCHAR
STARTCHAR Q
ENCODING 81
SWIDTH 722 0
DWIDTH 14 0
BBX 13 17 1 -4
BITMAP
01E0
0630
1C18
1818
3818
3018
7038
6030
6070
6060
20E0
31C0
1F00
1800
3020
7CC0
E780
ENDCHAR
STARTCHAR R
ENCODING 82
SWIDTH 611 0
DWIDTH 12 0
BBX 11 13 1 0
BITMAP
3FC0
18E0
1860
1860
30E0
31C0
3F00
3600
6300
6380
6180
61C0
F0E0
ENDCHAR
STARTCHAR S
ENCODING 83
SWIDTH 500 0
DWIDTH 9 0
BBX 9 13 1 0
BITMAP
0F80
1980
3080
3080
3800
1C00
0E00
0F00
0700
8300
8300
C600
FC00
ENDCHAR
STARTCHAR T
ENCODING 84
SWIDTH 556 0
DWIDTH 10 0
BBX 11 13 1 0
BITMAP
7FE0
C660
8620
0600
0C00
0C00
0C00
0C00
1800
1800
1800
1800
3C00
ENDCHAR
STARTCHAR U
ENCODING 85
SWIDTH 722 0
DWIDTH 14 0
BBX 13 13 2 0
BITMAP
7C78
3030
3020
3020
6060
6040
6040
E0C0
C080
C180
C180
E300
7E00
ENDCHAR
STARTCHAR V
ENCODING 86
SWIDTH 611 0
DWIDTH 11 0
BBX 11 13 2 0
BITMAP
F1E0
60C0
6080
6100
6200
6200
6400
6400
6800
7000
7000
6000
4000
ENDCHAR
STARTCHAR W
ENCODING 87
SWIDTH 833 0
DWIDTH 15 0
BBX 15 13 2 0
BITMAP
F3CE
6184
638C
6388
6598
6590
65A0
69A0
69C0
71C0
6180
6180
4100
ENDCHAR
STARTCHAR X
ENCODING 88
SWIDTH 611 0
DWIDTH 11 0
BBX 14 13 -1 0
BITMAP
3F7C
0C30
0E60
0640
0780
0300
0300
0780
0580
08C0
10C0
30E0
FBF0
ENDCHAR
STARTCHAR Y
ENCODING 89
SWIDTH 556 0
DWIDTH 11 0
BBX 11 13 2 0
BITMAP
F9E0
60C0
7180
3300
3600
1C00
1800
1800
1800
3000
3000
3000
FC00
ENDCHAR
STARTCHAR Z
ENCODING 90
SWIDTH 556 0
DWIDTH 10 0
BBX 12 13 0 0
BITMAP
3FF0
60E0
40C0
0180
0300
0600
0600
0C00
1800
3800
3020
7060
FFC0
ENDCHAR
STARTCHAR bracketleft
ENCODING 91
SWIDTH 389 0
DWIDTH 7 0
BBX 8 16 1 -3
BITMAP
0F
0C
18
18
18
18
30
30
30
30
60
60
60
60
C0
F0
ENDCHAR
STARTCHAR backslash
ENCODING 92
SWIDTH 278 0
DWIDTH 5 0
BBX 5 13 0 0
BITMAP
80
C0
40
40
60
20
20
30
10
10
18
18
08
ENDCHAR
STARTCHAR bracketright
ENCODING 93
SWIDTH 389 0
DWIDTH 7 0
BBX 8 16 -1 -3
BITMAP
0F
03
06
06
06
06
0C
0C
0C
0C
18
18
18
18
30
F0
ENDCHAR
STARTCHAR asciicircum
ENCODING 94
SWIDTH 422 0
DWIDTH 8 0
BBX 7 7 1 6
BITMAP
08
1C
34
26
46
C2
82
ENDCHAR
STARTCHAR underscore
ENCODING 95
SWIDTH 500 0
DWIDTH 9 0
BBX 10 1 -1 -5
BITMAP
FFC0
ENDCHAR
STARTCHAR grave
ENCODING 96
SWIDTH 333 0
DWIDTH 6 0
BBX 4 3 3 10
BITMAP
C0
60
10
ENDCHAR
STARTCHAR a
ENCODING 97
SWIDTH 500 0
DWIDTH 10 0
BBX 9 9 1 0
BITMAP
1E80
6700
4300
C300
C600
C600
C600
EE80
3300
ENDCHAR
STARTCHAR b
ENCODING 98
SWIDTH 500 0
DWIDTH 9 0
BBX 9 14 0 0
BITMAP
3800
1800
1800
1000
3000
3700
3980
3180
3180
6180
6180
6300
6200
BC00
ENDCHAR
STARTCHAR c
ENCODING 99
SWIDTH 444 0
DWIDTH 8 0
BBX 7 9 1 0
BITMAP
1E
72
40
C0
C0
C0
C0
E4
78
ENDCHAR
STARTCHAR d
ENCODING 100
SWIDTH 500 0
DWIDTH 10 0
BBX 9 14 1 0
BITMAP
0380
0180
0180
0180
0100
1D00
6700
4300
C200
C600
C600
C600
EE80
3300
ENDCHAR
STARTCHAR e
ENCODING 101
SWIDTH 444 0
DWIDTH 8 0
BBX 7 9 1 0
BITMAP
1C
66
46
CC
F8
E0
C2
E4
78
ENDCHAR
STARTCHAR f
ENCODING 102
SWIDTH 278 0
DWIDTH 5 0
BBX 9 18 -1 -4
BITMAP
0700
0D80
0C00
1800
1800
7E00
1800
1800
1800
1800
3000
3000
3000
3000
2000
2000
E000
C000
ENDCHAR
STARTCHAR g
ENCODING 103
SWIDTH 500 0
DWIDTH 8 0
BBX 10 13 -1 -4
BITMAP
0FC0
1B00
3180
3180
3300
3B00
1E00
1000
3F00
6380
C180
E300
7C00
ENDCHAR
STARTCHAR h
ENCODING 104
SWIDTH 500 0
DWIDTH 10 0
BBX 9 14 1 0
BITMAP
7000
3000
3000
2000
6000
6600
6F00
7300
6300
C600
C600
C600
C680
C700
ENDCHAR
STARTCHAR i
ENCODING 105
SWIDTH 278 0
DWIDTH 5 0
BBX 4 14 1 0
BITMAP
30
30
00
00
00
E0
60
60
60
C0
C0
C0
D0
E0
ENDCHAR
STARTCHAR j
ENCODING 106
SWIDTH 278 0
DWIDTH 5 0
BBX 7 17 -2 -3
BITMAP
06
06
00
00
00
1C
0C
0C
0C
0C
0C
18
18
18
18
D0
E0
ENDCHAR
STARTCHAR k
ENCODING 107
SWIDTH 444 0
DWIDTH 8 0
BBX 8 14 1 0
BITMAP
70
30
30
20
60
67
66
68
70
E0
F0
D8
DE
CC
ENDCHAR
STARTCHAR l
ENCODING 108
SWIDTH 278 0
DWIDTH 5 0
BBX 4 14 1 0
BITMAP
70
30
30
20
60
60
60
60
60
C0
C0
C0
D0
E0
ENDCHAR
STARTCHAR m
ENCODING 109
SWIDTH 722 0
DWIDTH 15 0
BBX 14 9 1 0
BITMAP
E660
6EF8
7398
6318
6318
C630
C630
C634
C638
ENDCHAR
STARTCHAR n
ENCODING 110
SWIDTH 500 0
DWIDTH 10 0
BBX 9 9 1 0
BITMAP
E600
6F00
7300
6300
6300
C600
C600
C680
C700
ENDCHAR
STARTCHAR o
ENCODING 111
SWIDTH 500 0
DWIDTH 9 0
BBX 8 9 1 0
BITMAP
1E
67
43
C3
C3
C3
C2
E6
78
ENDCHAR
STARTCHAR p
ENCODING 112
SWIDTH 500 0
DWIDTH 9 0
BBX 10 13 -1 -4
BITMAP
3B80
1CC0
18C0
18C0
30C0
30C0
3180
3100
3E00
6000
6000
6000
F000
ENDCHAR
STARTCHAR q
ENCODING 113
SWIDTH 500 0
DWIDTH 9 0
BBX 8 13 1 -4
BITMAP
1F
63
43
C3
C6
C6
C6
EE
36
04
0C
0C
1E
ENDCHAR
STARTCHAR r
ENCODING 114
SWIDTH 389 0
DWIDTH 6 0
BBX 6 9 1 0
BITMAP
EC
6C
70
60
60
C0
C0
C0
C0
ENDCHAR
STARTCHAR s
ENCODING 115
SWIDTH 389 0
DWIDTH 8 0
BBX 7 9 1 0
BITMAP
3E
66
62
30
18
18
8C
CC
F8
ENDCHAR
STARTCHAR t
ENCODING 116
SWIDTH 278 0
DWIDTH 5 0
BBX 5 11 1 0
BITMAP
10
30
F8
60
60
60
C0
C0
C0
D0
60
ENDCHAR
STARTCHAR u
ENCODING 117
SWIDTH 500 0
DWIDTH 9 0
BBX 8 9 1 0
BITMAP
E3
63
63
43
C6
C6
CE
F7
66
ENDCHAR
STARTCHAR v
ENCODING 118
SWIDTH 444 0
DWIDTH 8 0
BBX 8 9 0 0
BITMAP
E3
63
62
66
34
34
38
38
30
ENDCHAR
STARTCHAR w
ENCODING 119
SWIDTH 667 0
DWIDTH 13 0
BBX 13 9 0 0
BITMAP
E318
6318
6310
6330
35A0
35A0
39C0
3180
2100
ENDCHAR
STARTCHAR x
ENCODING 120
SWIDTH 444 0
DWIDTH 8 0
BBX 8 9 0 0
BITMAP
73
33
36
1C
38
38
6C
CF
C6
ENDCHAR
STARTCHAR y
ENCODING 121
SWIDTH 444 0
DWIDTH 8 0
BBX 9 13 -1 -4
BITMAP
7180
3180
3100
3300
1A00
1A00
1C00
0C00
0800
1800
1000
B000
E000
ENDCHAR
STARTCHAR z
ENCODING 122
SWIDTH 389 0
DWIDTH 7 0
BBX 7 9 0 0
BITMAP
7E
46
0C
18
18
30
60
C4
FC
ENDCHAR
STARTCHAR braceleft
ENCODING 123
SWIDTH 400 0
DWIDTH 8 0
BBX 7 17 2 -4
BITMAP
06
08
18
18
18
10
30
60
C0
60
20
20
60
60
60
60
30
ENDCHAR
STARTCHAR bar
ENCODING 124
SWIDTH 275 0
DWIDTH 5 0
BBX 5 17 0 -4
BITMAP
08
08
08
10
10
10
20
20
20
40
40
40
40
80
80
80
80
ENDCHAR
STARTCHAR braceright
ENCODING 125
SWIDTH 400 0
DWIDTH 8 0
BBX 7 17 0 -4
BITMAP
18
0C
0C
0C
0C
08
08
0C
06
0C
18
10
30
30
30
20
C0
ENDCHAR
STARTCHAR asciitilde
ENCODING 126
SWIDTH 541 0
DWIDTH 10 0
BBX 9 3 1 3
BITMAP
3080
7F00
8600
ENDCHAR
STARTCHAR space
ENCODING 160
SWIDTH 250 0
DWIDTH 4 0
BBX 1 1 0 0
BITMAP
00
ENDCHAR
STARTCHAR exclamdown
ENCODING 161
SWIDTH 389 0
DWIDTH 7 0
BBX 5 13 1 -4
BITMAP
18
18
00
10
30
20
20
60
60
E0
C0
C0
C0
ENDCHAR
STARTCHAR cent
ENCODING 162
SWIDTH 500 0
DWIDTH 9 0
BBX 7 12 1 -2
BITMAP
04
04
3E
6E
C8
C8
D0
D0
E4
78
40
40
ENDCHAR
STARTCHAR sterling
ENCODING 163
SWIDTH 500 0
DWIDTH 10 0
BBX 10 13 0 0
BITMAP
0380
06C0
0CC0
0C00
1800
1800
7E00
1800
1800
1000
7080
BF80
EF00
ENDCHAR
STARTCHAR currency
ENCODING 164
SWIDTH 500 0
DWIDTH 9 0
BBX 8 7 1 3
BITMAP
81
7E
66
42
66
7E
81
ENDCHAR
STARTCHAR yen
ENCODING 165
SWIDTH 500 0
DWIDTH 9 0
BBX 11 13 1 0
BITMAP
F9E0
60C0
7180
3300
3600
1C00
FF00
1800
FF00
3000
3000
3000
FC00
ENDCHAR
STARTCHAR brokenbar
ENCODING 166
SWIDTH 275 0
DWIDTH 5 0
BBX 5 17 0 -4
BITMAP
08
08
08
08
10
10
10
00
00
00
40
40
40
80
80
80
80
ENDCHAR
STARTCHAR section
ENCODING 167
SWIDTH 500 0
DWIDTH 9 0
BBX 8 16 1 -2
BITMAP
0E
13
23
30
38
3C
4E
46
62
72
3C
1C
0C
C4
C8
70
ENDCHAR
STARTCHAR dieresis
ENCODING 168
SWIDTH 333 0
DWIDTH 6 0
BBX 5 2 2 10
BITMAP
D8
D8
ENDCHAR
STARTCHAR copyright
ENCODING 169
SWIDTH 760 0
DWIDTH 15 0
BBX 13 13 1 0
BITMAP
0F80
3060
4010
4790
8888
9008
9008
9008
8888
4710
4010
3060
0F80
ENDCHAR
STARTCHAR ordfeminine
ENCODING 170
SWIDTH 276 0
DWIDTH 5 0
BBX 7 8 0 5
BITMAP
1A
24
44
48
48
34
00
F8
ENDCHAR
STARTCHAR guillemotleft
ENCODING 171
SWIDTH 500 0
DWIDTH 10 0
BBX 9 6 0 2
BITMAP
1980
3300
6600
CC00
6600
3300
ENDCHAR
STARTCHAR logicalnot
ENCODING 172
SWIDTH 675 0
DWIDTH 11 0
BBX 9 5 1 3
BITMAP
FF80
0080
0080
0080
0080
ENDCHAR
STARTCHAR hyphen
ENCODING 173
SWIDTH 333 0
DWIDTH 6 0
BBX 4 2 1 4
BITMAP
F0
F0
ENDCHAR
STARTCHAR registered
ENCODING 174
SWIDTH 760 0
DWIDTH 15 0
BBX 13 13 1 0
BITMAP
0F80
3060
4010
5F10
8888
8888
8F08
8908
8888
5CD0
4010
3060
0F80
ENDCHAR
STARTCHAR macron
ENCODING 175
SWIDTH 333 0
DWIDTH 6 0
BBX 4 1 3 11
BITMAP
F0
ENDCHAR
STARTCHAR degree
ENCODING 176
SWIDTH 400 0
DWIDTH 7 0
BBX 6 6 1 7
BITMAP
78
CC
84
84
CC
78
ENDCHAR
STARTCHAR plusminus
ENCODING 177
SWIDTH 675 0
DWIDTH 13 0
BBX 9 11 2 0
BITMAP
0800
0800
0800
0800
FF80
0800
0800
0800
0800
0000
FF80
ENDCHAR
STARTCHAR twosuperior
ENCODING 178
SWIDTH 300 0
DWIDTH 5 0
BBX 5 8 0 5
BITMAP
30
58
18
10
20
40
C8
F0
ENDCHAR
STARTCHAR threesuperior
ENCODING 179
SWIDTH 300 0
DWIDTH 5 0
BBX 6 8 0 5
BITMAP
38
4C
08
30
18
18
90
E0
ENDCHAR
STARTCHAR acute
ENCODING 180
SWIDTH 333 0
DWIDTH 6 0
BBX 4 3 3 10
BITMAP
30
60
80
ENDCHAR
STARTCHAR mu
ENCODING 181
SWIDTH 500 0
DWIDTH 9 0
BBX 10 13 -1 -4
BITMAP
38C0
18C0
18C0
18C0
3180
3180
3380
3DC0
7980
4000
C000
E000
4000
ENDCHAR
STARTCHAR paragraph
ENCODING 182
SWIDTH 523 0
DWIDTH 10 0
BBX 8 17 2 -4
BITMAP
1F
7A
FA
F4
F4
F4
F4
68
28
28
50
50
50
50
A0
A0
A0
ENDCHAR
STARTCHAR periodcentered
ENCODING 183
SWIDTH 250 0
DWIDTH 5 0
BBX 2 2 2 4
BITMAP
C0
C0
ENDCHAR
STARTCHAR cedilla
ENCODING 184
SWIDTH 333 0
DWIDTH 6 0
BBX 4 4 1 -4
BITMAP
20
30
B0
60
ENDCHAR
STARTCHAR onesuperior
ENCODING 185
SWIDTH 300 0
DWIDTH 5 0
BBX 5 8 0 5
BITMAP
08
38
18
10
30
20
20
F8
ENDCHAR
STARTCHAR ordmasculine
ENCODING 186
SWIDTH 310 0
DWIDTH 6 0
BBX 6 8 1 5
BITMAP
18
24
44
44
48
30
00
F8
ENDCHAR
STARTCHAR guillemotright
ENCODING 187
SWIDTH 500 0
DWIDTH 10 0
BBX 9 6 1 2
BITMAP
6600
3300
1980
3300
6600
CC00
ENDCHAR
STARTCHAR onequarter
ENCODING 188
SWIDTH 750 0
DWIDTH 13 0
BBX 12 13 0 0
BITMAP
0860
3840
18C0
1180
3100
2310
2630
FC70
0CA0
1920
13F0
3040
6040
ENDCHAR
STARTCHAR onehalf
ENCODING 189
SWIDTH 750 0
DWIDTH 13 0
BBX 12 13 0 0
BITMAP
0860
3840
18C0
1180
3100
2360
26B0
FC30
0C20
1840
1080
3190
61E0
ENDCHAR
STARTCHAR threequarters
ENCODING 190
SWIDTH 750 0
DWIDTH 13 0
BBX 12 13 0 0
BITMAP
3860
4C40
08C0
3180
1900
1B10
9630
E470
0CA0
1920
13F0
3040
6040
ENDCHAR
STARTCHAR questiondown
ENCODING 191
SWIDTH 500 0
DWIDTH 9 0
BBX 6 13 1 -4
BITMAP
0C
0C
00
08
18
18
30
60
C0
C0
98
D8
70
ENDCHAR
STARTCHAR Agrave
ENCODING 192
SWIDTH 611 0
DWIDTH 11 0
BBX 11 17 0 0
BITMAP
0300
0180
0040
0000
00C0
01C0
01C0
02C0
06C0
04C0
0CC0
08C0
1FC0
30C0
20C0
60C0
F1E0
ENDCHAR
STARTCHAR Aacute
ENCODING 193
SWIDTH 611 0
DWIDTH 11 0
BBX 13 17 0 0
BITMAP
0018
0030
0040
0000
00C0
01C0
01C0
02C0
06C0
04C0
0CC0
08C0
1FC0
30C0
20C0
60C0
F1E0
ENDCHAR
STARTCHAR Acircumflex
ENCODING 194
SWIDTH 611 0
DWIDTH 11 0
BBX 12 17 0 0
BITMAP
0060
01B0
0310
0000
00C0
01C0
01C0
02C0
06C0
04C0
0CC0
08C0
1FC0
30C0
20C0
60C0
F1E0
ENDCHAR
STARTCHAR Atilde
ENCODING 195
SWIDTH 611 0
DWIDTH 11 0
BBX 12 17 0 0
BITMAP
0190
03F0
0260
0000
00C0
01C0
01C0
02C0
06C0
04C0
0CC0
08C0
1FC0
30C0
20C0
60C0
F1E0
ENDCHAR
STARTCHAR Adieresis
ENCODING 196
SWIDTH 611 0
DWIDTH 11 0
BBX 11 16 0 0
BITMAP
0360
0360
0000
00C0
01C0
01C0
02C0
06C0
04C0
0CC0
08C0
1FC0
30C0
20C0
60C0
F1E0
ENDCHAR
STARTCHAR Aring
ENCODING 197
SWIDTH 611 0
DWIDTH 11 0
BBX 11 17 0 0
BITMAP
00C0
0120
0120
00C0
00C0
01C0
01C0
02C0
06C0
04C0
0CC0
08C0
1FC0
30C0
20C0
60C0
F1E0
ENDCHAR
STARTCHAR AE
ENCODING 198
SWIDTH 889 0
DWIDTH 16 0
BBX 16 13 0 0
BITMAP
03FF
01E3
0161
0261
0664
0464
0CF8
08C8
1FC8
10C1
20C1
60C7
F1FE
ENDCHAR
STARTCHAR Ccedilla
ENCODING 199
SWIDTH 667 0
DWIDTH 12 0
BBX 12 17 2 -4
BITMAP
03D0
0C70
3820
3020
6000
6000
E000
C000
C000
C000
4040
6180
3E00
0800
0C00
2C00
1800
ENDCHAR
STARTCHAR Egrave
ENCODING 200
SWIDTH 611 0
DWIDTH 11 0
BBX 10 17 1 0
BITMAP
0C00
0600
0100
0000
3FC0
18C0
1840
1840
3100
3100
3E00
3200
6200
6040
6040
6180
FF80
ENDCHAR
STARTCHAR Eacute
ENCODING 201
SWIDTH 611 0
DWIDTH 11 0
BBX 10 17 1 0
BITMAP
0180
0300
0400
0000
3FC0
18C0
1840
1840
3100
3100
3E00
3200
6200
6040
6040
6180
FF80
ENDCHAR
STARTCHAR Ecircumflex
ENCODING 202
SWIDTH 611 0
DWIDTH 11 0
BBX 10 17 1 0
BITMAP
0180
06C0
0C40
0000
3FC0
18C0
1840
1840
3100
3100
3E00
3200
6200
6040
6040
6180
FF80
ENDCHAR
STARTCHAR Edieresis
ENCODING 203
SWIDTH 611 0
DWIDTH 11 0
BBX 10 16 1 0
BITMAP
0CC0
0CC0
0000
3FC0
18C0
1840
1840
3100
3100
3E00
3200
6200
6040
6040
6180
FF80
ENDCHAR
STARTCHAR Igrave
ENCODING 204
SWIDTH 333 0
DWIDTH 6 0
BBX 6 17 1 0
BITMAP
60
30
08
00
3C
18
18
18
30
30
30
30
60
60
60
60
F0
ENDCHAR
STARTCHAR Iacute
ENCODING 205
SWIDTH 333 0
DWIDTH 6 0
BBX 7 17 1 0
BITMAP
06
0C
10
00
3C
18
18
18
30
30
30
30
60
60
60
60
F0
ENDCHAR
STARTCHAR Icircumflex
ENCODING 206
SWIDTH 333 0
DWIDTH 6 0
BBX 7 17 1 0
BITMAP
0C
36
62
00
3C
18
18
18
30
30
30
30
60
60
60
60
F0
ENDCHAR
STARTCHAR Idieresis
ENCODING 207
SWIDTH 333 0
DWIDTH 6 0
BBX 7 16 1 0
BITMAP
36
36
00
3C
18
18
18
30
30
30
30
60
60
60
60
F0
ENDCHAR
STARTCHAR Eth
ENCODING 208
SWIDTH 722 0
DWIDTH 14 0
BBX 13 13 1 0
BITMAP
3FC0
1870
1838
1818
3018
3018
FC38
3030
6070
6060
60C0
6380
FE00
ENDCHAR
STARTCHAR Ntilde
ENCODING 209
SWIDTH 667 0
DWIDTH 12 0
BBX 14 17 0 0
BITMAP
0190
03F0
0260
0000
3C3C
0C08
1E08
1618
1710
1310
3330
31B0
21A0
21E0
60E0
60C0
F040
ENDCHAR
STARTCHAR Ograve
ENCODING 210
SWIDTH 722 0
DWIDTH 14 0
BBX 12 17 2 0
BITMAP
0600
0300
0080
0000
03C0
0C60
3830
3030
7030
6030
E070
C060
C0E0
C0C0
41C0
6380
3E00
ENDCHAR
STARTCHAR Oacute
ENCODING 211
SWIDTH 722 0
DWIDTH 14 0
BBX 12 17 2 0
BITMAP
0030
0060
0080
0000
03C0
0C60
3830
3030
7030
6030
E070
C060
C0E0
C0C0
41C0
6380
3E00
ENDCHAR
STARTCHAR Ocircumflex
ENCODING 212
SWIDTH 722 0
DWIDTH 14 0
BBX 12 17 2 0
BITMAP
00C0
0360
0620
0000
03C0
0C60
3830
3030
7030
6030
E070
C060
C0E0
C0C0
41C0
6380
3E00
ENDCHAR
STARTCHAR Otilde
ENCODING 213
SWIDTH 722 0
DWIDTH 14 0
BBX 12 17 2 0
BITMAP
0190
03F0
0260
0000
03C0
0C60
3830
3030
7030
6030
E070
C060
C0E0
C0C0
41C0
6380
3E00
ENDCHAR
STARTCHAR Odieresis
ENCODING 214
SWIDTH 722 0
DWIDTH 14 0
BBX 12 16 2 0
BITMAP
0330
0330
0000
03C0
0C60
3830
3030
7030
6030
E070
C060
C0E0
C0C0
41C0
6380
3E00
ENDCHAR
STARTCHAR multiply
ENCODING 215
SWIDTH 675 0
DWIDTH 13 0
BBX 10 9 2 0
BITMAP
C0C0
6180
3300
1E00
0C00
1E00
3300
6180
C0C0
ENDCHAR
STARTCHAR Oslash
ENCODING 216
SWIDTH 722 0
DWIDTH 14 0
BBX 12 16 2 -2
BITMAP
0010
03F0
0C60
38F0
31B0
7330
6330
E670
CC60
C8E0
D8C0
71C0
6380
7E00
C000
8000
ENDCHAR
STARTCHAR Ugrave
ENCODING 217
SWIDTH 722 0
DWIDTH 14 0
BBX 13 17 2 0
BITMAP
0600
0300
0080
0000
7C78
3030
3020
3020
6060
6040
6040
E0C0
C080
C180
C180
E300
7E00
ENDCHAR
STARTCHAR Uacute
ENCODING 218
SWIDTH 722 0
DWIDTH 14 0
BBX 13 17 2 0
BITMAP
0060
00C0
0100
0000
7C78
3030
3020
3020
6060
6040
6040
E0C0
C080
C180
C180
E300
7E00
ENDCHAR
STARTCHAR Ucircumflex
ENCODING 219
SWIDTH 722 0
DWIDTH 14 0
BBX 13 17 2 0
BITMAP
00C0
0360
0620
0000
7C78
3030
3020
3020
6060
6040
6040
E0C0
C080
C180
C180
E300
7E00
ENDCHAR
STARTCHAR Udieresis
ENCODING 220
SWIDTH 722 0
DWIDTH 14 0
BBX 13 16 2 0
BITMAP
0660
0660
0000
7C78
3030
3020
3020
6060
6040
6040
E0C0
C080
C180
C180
E300
7E00
ENDCHAR
STARTCHAR Yacute
ENCODING 221
SWIDTH 556 0
DWIDTH 11 0
BBX 11 17 2 0
BITMAP
0180
0300
0400
0000
F9E0
60C0
7180
3300
3600
1C00
1800
1800
1800
3000
3000
3000
FC00
ENDCHAR
STARTCHAR Thorn
ENCODING 222
SWIDTH 611 0
DWIDTH 11 0
BBX 10 13 1 0
BITMAP
3C00
1800
1800
1F80
31C0
30C0
30C0
31C0
6380
7E00
6000
6000
F000
ENDCHAR
STARTCHAR germandbls
ENCODING 223
SWIDTH 500 0
DWIDTH 9 0
BBX 10 17 -1 -4
BITMAP
0780
0CC0
08C0
18C0
1980
1B00
1980
1980
1980
1180
3180
3500
3600
2000
2000
E000
C000
ENDCHAR
STARTCHAR agrave
ENCODING 224
SWIDTH 500 0
DWIDTH 10 0
BBX 9 13 1 0
BITMAP
3000
1800
0400
0000
1E80
6700
4300
C300
C600
C600
C600
EE80
3300
ENDCHAR
STARTCHAR aacute
ENCODING 225
SWIDTH 500 0
DWIDTH 10 0
BBX 9 13 1 0
BITMAP
0180
0300
0400
0000
1E80
6700
4300
C300
C600
C600
C600
EE80
3300
ENDCHAR
STARTCHAR acircumflex
ENCODING 226
SWIDTH 500 0
DWIDTH 10 0
BBX 9 13 1 0
BITMAP
0300
0D80
1880
0000
1E80
6700
4300
C300
C600
C600
C600
EE80
3300
ENDCHAR
STARTCHAR atilde
ENCODING 227
SWIDTH 500 0
DWIDTH 10 0
BBX 9 13 1 0
BITMAP
1900
3F00
2600
0000
1E80
6700
4300
C300
C600
C600
C600
EE80
3300
ENDCHAR
STARTCHAR adieresis
ENCODING 228
SWIDTH 500 0
DWIDTH 10 0
BBX 9 12 1 0
BITMAP
3600
3600
0000
1E80
6700
4300
C300
C600
C600
C600
EE80
3300
ENDCHAR
STARTCHAR aring
ENCODING 229
SWIDTH 500 0
DWIDTH 10 0
BBX 9 14 1 0
BITMAP
0C00
1200
1200
0C00
0000
1E80
6700
4300
C300
C600
C600
C600
EE80
3300
ENDCHAR
STARTCHAR ae
ENCODING 230
SWIDTH 667 0
DWIDTH 13 0
BBX 12 9 1 0
BITMAP
1AE0
6730
4230
C660
C7C0
C700
C610
EF60
33C0
ENDCHAR
STARTCHAR ccedilla
ENCODING 231
SWIDTH 444 0
DWIDTH 8 0
BBX 7 13 1 -4
BITMAP
1E
72
40
C0
C0
C0
C0
E4
78
20
30
B0
60
ENDCHAR
STARTCHAR egrave
ENCODING 232
SWIDTH 444 0
DWIDTH 8 0
BBX 7 13 1 0
BITMAP
60
30
08
00
1C
66
46
CC
F8
E0
C2
E4
78
ENDCHAR
STARTCHAR eacute
ENCODING 233
SWIDTH 444 0
DWIDTH 8 0
BBX 8 13 1 0
BITMAP
03
06
08
00
1C
66
46
CC
F8
E0
C2
E4
78
ENDCHAR
STARTCHAR ecircumflex
ENCODING 234
SWIDTH 444 0
DWIDTH 8 0
BBX 7 13 1 0
BITMAP
0C
36
62
00
1C
66
46
CC
F8
E0
C2
E4
78
ENDCHAR
STARTCHAR edieresis
ENCODING 235
SWIDTH 444 0
DWIDTH 8 0
BBX 7 12 1 0
BITMAP
36
36
00
1C
66
46
CC
F8
E0
C2
E4
78
ENDCHAR
STARTCHAR igrave
ENCODING 236
SWIDTH 278 0
DWIDTH 5 0
BBX 4 13 1 0
BITMAP
C0
60
10
00
E0
60
60
60
C0
C0
C0
D0
E0
ENDCHAR
STARTCHAR iacute
ENCODING 237
SWIDTH 278 0
DWIDTH 5 0
BBX 6 13 1 0
BITMAP
0C
18
20
00
60
E0
60
60
C0
C0
C0
D0
E0
ENDCHAR
STARTCHAR icircumflex
ENCODING 238
SWIDTH 278 0
DWIDTH 5 0
BBX 6 13 0 0
BITMAP
18
6C
C4
00
30
70
30
30
60
60
60
68
70
ENDCHAR
STARTCHAR idieresis
ENCODING 239
SWIDTH 278 0
DWIDTH 5 0
BBX 5 12 1 0
BITMAP
D8
D8
00
60
E0
60
60
C0
C0
C0
D0
E0
ENDCHAR
STARTCHAR eth
ENCODING 240
SWIDTH 500 0
DWIDTH 9 0
BBX 8 13 1 0
BITMAP
30
1B
1C
26
1E
67
43
C3
C3
C3
C2
E6
78
ENDCHAR
STARTCHAR ntilde
ENCODING 241
SWIDTH 500 0
DWIDTH 10 0
BBX 9 13 1 0
BITMAP
1900
3F00
2600
0000
E600
6F00
7300
6300
6300
C600
C600
C680
C700
ENDCHAR
STARTCHAR ograve
ENCODING 242
SWIDTH 500 0
DWIDTH 9 0
BBX 8 13 1 0
BITMAP
60
30
08
00
1E
67
43
C3
C3
C3
C2
E6
78
ENDCHAR
STARTCHAR oacute
ENCODING 243
SWIDTH 500 0
DWIDTH 9 0
BBX 8 13 1 0
BITMAP
03
06
08
00
1E
67
43
C3
C3
C3
C2
E6
78
ENDCHAR
STARTCHAR ocircumflex
ENCODING 244
SWIDTH 500 0
DWIDTH 9 0
BBX 8 13 1 0
BITMAP
06
1B
31
00
1E
67
43
C3
C3
C3
C2
E6
78
ENDCHAR
STARTCHAR otilde
ENCODING 245
SWIDTH 500 0
DWIDTH 9 0
BBX 8 13 1 0
BITMAP
19
3F
26
00
1E
67
43
C3
C3
C3
C2
E6
78
ENDCHAR
STARTCHAR odieresis
ENCODING 246
SWIDTH 500 0
DWIDTH 9 0
BBX 8 12 1 0
BITMAP
36
36
00
1E
67
43
C3
C3
C3
C2
E6
78
ENDCHAR
STARTCHAR divide
ENCODING 247
SWIDTH 675 0
DWIDTH 13 0
BBX 9 10 2 0
BITMAP
0800
0800
0000
0000
FF80
0000
0000
0000
0800
0800
ENDCHAR
STARTCHAR oslash
ENCODING 248
SWIDTH 500 0
DWIDTH 9 0
BBX 8 13 1 -2
BITMAP
01
02
1E
67
4B
CB
D3
D3
E2
E6
78
40
80
ENDCHAR
STARTCHAR ugrave
ENCODING 249
SWIDTH 500 0
DWIDTH 9 0
BBX 8 13 1 0
BITMAP
60
30
08
00
E3
63
63
C6
C6
C6
CE
F7
66
ENDCHAR
STARTCHAR uacute
ENCODING 250
SWIDTH 500 0
DWIDTH 9 0
BBX 8 13 1 0
BITMAP
03
06
08
00
E3
63
63
C6
C6
C6
CE
F7
66
ENDCHAR
STARTCHAR ucircumflex
ENCODING 251
SWIDTH 500 0
DWIDTH 9 0
BBX 8 13 1 0
BITMAP
06
1B
31
00
E3
63
63
C6
C6
C6
CE
F7
66
ENDCHAR
STARTCHAR udieresis
ENCODING 252
SWIDTH 500 0
DWIDTH 9 0
BBX 8 12 1 0
BITMAP
36
36
00
E3
63
63
C6
C6
C6
CE
F7
66
ENDCHAR
STARTCHAR yacute
ENCODING 253
SWIDTH 444 0
DWIDTH 8 0
BBX 9 17 0 -4
BITMAP
0180
0300
0400
0000
7180
3180
3100
3300
1A00
1A00
1C00
0C00
0800
1800
1000
3000
E000
ENDCHAR
STARTCHAR thorn
ENCODING 254
SWIDTH 500 0
DWIDTH 9 0
BBX 10 17 -1 -4
BITMAP
1C00
0C00
0C00
0800
1B80
1CC0
18C0
18C0
30C0
30C0
3180
3300
3E00
6000
6000
6000
F000
ENDCHAR
STARTCHAR ydieresis
ENCODING 255
SWIDTH 444 0
DWIDTH 8 0
BBX 9 16 0 -4
BITMAP
1B00
1B00
0000
7180
3180
3100
3200
1A00
1A00
1C00
0C00
0800
1800
1000
3000
E000
ENDCHAR
STARTCHAR Amacron
ENCODING 256
SWIDTH 611 0
DWIDTH 11 0
BBX 11 15 0 0
BITMAP
03C0
0000
00C0
01C0
01C0
02C0
06C0
04C0
0CC0
08C0
1FC0
30C0
20C0
60C0
F1E0
ENDCHAR
STARTCHAR amacron
ENCODING 257
SWIDTH 500 0
DWIDTH 10 0
BBX 9 11 1 0
BITMAP
1E00
0000
1E80
6700
4300
C300
C600
C600
C600
EE80
3300
ENDCHAR
STARTCHAR Abreve
ENCODING 258
SWIDTH 611 0
DWIDTH 11 0
BBX 11 17 0 0
BITMAP
0420
0640
0380
0000
00C0
01C0
01C0
02C0
06C0
04C0
0CC0
08C0
1FC0
30C0
20C0
60C0
F1E0
ENDCHAR
STARTCHAR abreve
ENCODING 259
SWIDTH 500 0
DWIDTH 10 0
BBX 9 13 1 0
BITMAP
2100
3200
1C00
0000
1E80
6700
4300
C300
C600
C600
C600
EE80
3300
ENDCHAR
STARTCHAR Aogonek
ENCODING 260
SWIDTH 611 0
DWIDTH 11 0
BBX 11 17 0 -4
BITMAP
00C0
01C0
01C0
02C0
06C0
04C0
0CC0
08C0
1FC0
30C0
20C0
60C0
F1E0
0400
0C00
0D00
0700
ENDCHAR
STARTCHAR aogonek
ENCODING 261
SWIDTH 500 0
DWIDTH 10 0
BBX 9 13 1 -4
BITMAP
1E80
6700
4300
C300
C600
C600
C600
EE80
3300
0800
1800
1A00
0E00
ENDCHAR
STARTCHAR Cacute
ENCODING 262
SWIDTH 667 0
DWIDTH 12 0
BBX 12 17 2 0
BITMAP
00C0
0180
0200
0000
03D0
0C70
3820
3020
6000
6000
E000
C000
C000
C000
4040
6180
3E00
ENDCHAR
STARTCHAR cacute
ENCODING 263
SWIDTH 444 0
DWIDTH 8 0
BBX 7 13 1 0
BITMAP
06
0C
10
00
1E
72
40
C0
C0
C0
C0
E4
78
ENDCHAR
STARTCHAR Ccircumflex
ENCODING 264
SWIDTH 667 0
DWIDTH 12 0
BBX 12 17 2 0
BITMAP
0180
06C0
0C40
0000
03D0
0C70
3820
3020
6000
6000
E000
C000
C000
C000
4040
6180
3E00
ENDCHAR
STARTCHAR ccircumflex
ENCODING 265
SWIDTH 444 0
DWIDTH 8 0
BBX 7 13 1 0
BITMAP
0C
36
62
00
1E
72
40
C0
C0
C0
C0
E4
78
ENDCHAR
STARTCHAR Cdotaccent
ENCODING 266
SWIDTH 667 0
DWIDTH 12 0
BBX 12 16 2 0
BITMAP
0300
0300
0000
03D0
0C70
3820
3020
6000
6000
E000
C000
C000
C000
4040
6180
3E00
ENDCHAR
STARTCHAR cdotaccent
ENCODING 267
SWIDTH 444 0
DWIDTH 8 0
BBX 7 12 1 0
BITMAP
18
18
00
1E
72
40
C0
C0
C0
C0
E4
78
ENDCHAR
STARTCHAR Ccaron
ENCODING 268
SWIDTH 667 0
DWIDTH 12 0
BBX 12 17 2 0
BITMAP
0440
0280
0300
0000
03D0
0C70
3820
3020
6000
6000
E000
C000
C000
C000
4040
6180
3E00
ENDCHAR
STARTCHAR ccaron
ENCODING 269
SWIDTH 444 0
DWIDTH 8 0
BBX 7 13 1 0
BITMAP
22
14
18
00
1E
72
40
C0
C0
C0
C0
E4
78
ENDCHAR
STARTCHAR Dcaron
ENCODING 270
SWIDTH 722 0
DWIDTH 14 0
BBX 13 17 1 0
BITMAP
0440
0280
0300
0000
3FC0
1870
1838
1818
3018
3018
3038
3030
6070
6060
60C0
6380
FE00
ENDCHAR
STARTCHAR dcaron
ENCODING 271
SWIDTH 808 0
DWIDTH 16 0
BBX 14 14 1 0
BITMAP
0380
018C
018C
0184
0108
1D00
6700
4300
C200
C600
C600
C600
EE80
3300
ENDCHAR
STARTCHAR Dcroat
ENCODING 272
SWIDTH 722 0
DWIDTH 14 0
BBX 13 13 1 0
BITMAP
3FC0
1870
1838
1818
3018
3018
FC38
3030
6070
6060
60C0
6380
FE00
ENDCHAR
STARTCHAR dcroat
ENCODING 273
SWIDTH 500 0
DWIDTH 10 0
BBX 9 14 1 0
BITMAP
0380
0180
0180
1F80
0100
1D00
6700
4300
C200
C600
C600
C600
EE80
3300
ENDCHAR
STARTCHAR Emacron
ENCODING 274
SWIDTH 611 0
DWIDTH 11 0
BBX 10 15 1 0
BITMAP
0F00
0000
3FC0
18C0
1840
1840
3100
3100
3E00
3200
6200
6040
6040
6180
FF80
ENDCHAR
STARTCHAR emacron
ENCODING 275
SWIDTH 444 0
DWIDTH 8 0
BBX 7 11 1 0
BITMAP
3C
00
1C
66
46
CC
F8
E0
C2
E4
78
ENDCHAR
STARTCHAR Ebreve
ENCODING 276
SWIDTH 611 0
DWIDTH 11 0
BBX 10 17 1 0
BITMAP
1080
1900
0E00
0000
3FC0
18C0
1840
1840
3100
3100
3E00
3200
6200
6040
6040
6180
FF80
ENDCHAR
STARTCHAR ebreve
ENCODING 277
SWIDTH 444 0
DWIDTH 8 0
BBX 7 13 1 0
BITMAP
42
64
38
00
1C
66
46
CC
F8
E0
C2
E4
78
ENDCHAR
STARTCHAR Edotaccent
ENCODING 278
SWIDTH 611 0
DWIDTH 11 0
BBX 10 16 1 0
BITMAP
0600
0600
0000
3FC0
18C0
1840
1840
3100
3100
3E00
3200
6200
6040
6040
6180
FF80
ENDCHAR
STARTCHAR edotaccent
ENCODING 279
SWIDTH 444 0
DWIDTH 8 0
BBX 7 12 1 0
BITMAP
18
18
00
1C
66
46
CC
F8
E0
C2
E4
78
ENDCHAR
STARTCHAR Eogonek
ENCODING 280
SWIDTH 611 0
DWIDTH 11 0
BBX 10 17 1 -4
BITMAP
3FC0
18C0
1840
1840
3100
3100
3E00
3200
6200
6040
6040
6180
FF80
0800
1800
1A00
0E00
ENDCHAR
STARTCHAR eogonek
ENCODING 281
SWIDTH 444 0
DWIDTH 8 0
BBX 7 13 1 -4
BITMAP
1C
66
46
CC
F8
E0
C2
E4
78
10
30
34
1C
ENDCHAR
STARTCHAR Ecaron
ENCODING 282
SWIDTH 611 0
DWIDTH 11 0
BBX 10 17 1 0
BITMAP
0880
0500
0600
0000
3FC0
18C0
1840
1840
3100
3100
3E00
3200
6200
6040
6040
6180
FF80
ENDCHAR
STARTCHAR ecaron
ENCODING 283
SWIDTH 444 0
DWIDTH 8 0
BBX 7 13 1 0
BITMAP
22
14
18
00
1C
66
46
CC
F8
E0
C2
E4
78
ENDCHAR
STARTCHAR Gcircumflex
ENCODING 284
SWIDTH 722 0
DWIDTH 14 0
BBX 12 17 2 0
BITMAP
0180
06C0
0C40
0000
03D0
0C70
3820
3020
6000
6000
E000
C1F0
C0C0
C0C0
4180
6180
3F00
ENDCHAR
STARTCHAR gcircumflex
ENCODING 285
SWIDTH 500 0
DWIDTH 8 0
BBX 10 17 -1 -4
BITMAP
0300
0D80
1880
0000
0FC0
1B00
3180
3180
3300
3B00
1E00
1000
3F00
6380
C180
E300
7C00
ENDCHAR
STARTCHAR Gbreve
ENCODING 286
SWIDTH 722 0
DWIDTH 14 0
BBX 12 17 2 0
BITMAP
0840
0C80
0700
0000
03D0
0C70
3820
3020
6000
6000
E000
C1F0
C0C0
C0C0
4180
6180
3F00
ENDCHAR
STARTCHAR gbreve
ENCODING 287
SWIDTH 500 0
DWIDTH 8 0
BBX 10 17 -1 -4
BITMAP
1080
1900
0E00
0000
0FC0
1B00
3180
3180
3300
3B00
1E00
1000
3F00
6380
C180
E300
7C00
ENDCHAR
STARTCHAR Gdotaccent
ENCODING 288
SWIDTH 722 0
DWIDTH 14 0
BBX 12 16 2 0
BITMAP
0300
0300
0000
03D0
0C70
3820
3020
6000
6000
E000
C1F0
C0C0
C0C0
4180
6180
3F00
ENDCHAR
STARTCHAR gdotaccent
ENCODING 289
SWIDTH 500 0
DWIDTH 8 0
BBX 10 16 -1 -4
BITMAP
0600
0600
0000
0FC0
1B00
3180
3180
3300
3B00
1E00
1000
3F00
6380
C180
E300
7C00
ENDCHAR
STARTCHAR Gcommaaccent
ENCODING 290
SWIDTH 722 0
DWIDTH 14 0
BBX 12 18 2 -5
BITMAP
03D0
0C70
3820
3020
6000
6000
E000
C1F0
C0C0
C0C0
4180
6180
3F00
0000
0600
0600
0600
0C00
ENDCHAR
STARTCHAR gcommaaccent
ENCODING 291
SWIDTH 500 0
DWIDTH 8 0
BBX 10 18 -1 -4
BITMAP
0200
0400
0600
0600
0000
0FC0
1B00
3180
3180
3300
3B00
1E00
1000
3F00
6380
C180
E300
7C00
ENDCHAR
STARTCHAR Hcircumflex
ENCODING 292
SWIDTH 722 0
DWIDTH 13 0
BBX 13 17 1 0
BITMAP
00C0
0360
0620
0000
3C78
1830
1830
1830
3060
3060
3FE0
3060
60C0
60C0
60C0
60C0
F1E0
ENDCHAR
STARTCHAR hcircumflex
ENCODING 293
SWIDTH 500 0
DWIDTH 10 0
BBX 9 18 1 0
BITMAP
0C00
3600
6200
0000
7000
3000
3000
2000
6000
6600
6F00
7300
6300
C600
C600
C600
C680
C700
ENDCHAR
STARTCHAR Hbar
ENCODING 294
SWIDTH 722 0
DWIDTH 13 0
BBX 13 13 1 0
BITMAP
3C78
1830
1830
FFF8
3060
3060
3FE0
3060
60C0
60C0
60C0
60C0
F1E0
ENDCHAR
STARTCHAR hbar
ENCODING 295
SWIDTH 500 0
DWIDTH 10 0
BBX 10 14 0 0
BITMAP
3800
1800
1800
FC00
3000
3300
3780
3980
3180
6300
6300
6300
6340
6380
ENDCHAR
STARTCHAR Itilde
ENCODING 296
SWIDTH 333 0
DWIDTH 6 0
BBX 7 17 1 0
BITMAP
32
7E
4C
00
3C
18
18
18
30
30
30
30
60
60
60
60
F0
ENDCHAR
STARTCHAR itilde
ENCODING 297
SWIDTH 278 0
DWIDTH 5 0
BBX 6 12 0 0
BITMAP
64
FC
98
00
70
30
30
20
60
60
68
70
ENDCHAR
STARTCHAR Imacron
ENCODING 298
SWIDTH 333 0
DWIDTH 6 0
BBX 6 15 1 0
BITMAP
3C
00
3C
18
18
18
30
30
30
30
60
60
60
60
F0
ENDCHAR
STARTCHAR imacron
ENCODING 299
SWIDTH 278 0
DWIDTH 5 0
BBX 4 10 1 0
BITMAP
F0
00
E0
60
60
40
C0
C0
D0
E0
ENDCHAR
STARTCHAR Ibreve
ENCODING 300
SWIDTH 333 0
DWIDTH 6 0
BBX 7 17 1 0
BITMAP
42
64
38
00
3C
18
18
18
30
30
30
30
60
60
60
60
F0
ENDCHAR
STARTCHAR ibreve
ENCODING 301
SWIDTH 278 0
DWIDTH 5 0
BBX 6 12 0 0
BITMAP
84
C8
70
00
70
30
30
20
60
60
68
70
ENDCHAR
STARTCHAR Iogonek
ENCODING 302
SWIDTH 333 0
DWIDTH 6 0
BBX 6 17 1 -4
BITMAP
3C
18
18
18
30
30
30
30
60
60
60
60
F0
20
60
68
38
ENDCHAR
STARTCHAR iogonek
ENCODING 303
SWIDTH 278 0
DWIDTH 5 0
BBX 4 18 1 -4
BITMAP
30
30
00
00
00
E0
60
60
60
C0
C0
C0
D0
E0
40
C0
D0
70
ENDCHAR
STARTCHAR Idotaccent
ENCODING 304
SWIDTH 333 0
DWIDTH 6 0
BBX 6 16 1 0
BITMAP
18
18
00
3C
18
18
18
30
30
30
30
60
60
60
60
F0
ENDCHAR
STARTCHAR dotlessi
ENCODING 305
SWIDTH 278 0
DWIDTH 5 0
BBX 4 8 1 0
BITMAP
E0
60
60
40
C0
C0
D0
E0
ENDCHAR
STARTCHAR IJ
ENCODING 306
SWIDTH 760 0
DWIDTH 13 0
BBX 13 13 1 0
BITMAP
3C78
1830
1830
1830
3060
3060
3060
3060
60C0
60C0
66C0
66C0
F380
ENDCHAR
STARTCHAR ij
ENCODING 307
SWIDTH 542 0
DWIDTH 10 0
BBX 9 17 1 -3
BITMAP
3180
3180
0000
0000
0000
E700
6300
6300
6300
C300
C300
C600
D600
E600
0600
3400
3800
ENDCHAR
STARTCHAR Jcircumflex
ENCODING 308
SWIDTH 444 0
DWIDTH 7 0
BBX 9 17 0 0
BITMAP
0300
0D80
1880
0000
0F00
0600
0600
0600
0C00
0C00
0C00
0C00
1800
1800
D800
D800
7000
ENDCHAR
STARTCHAR jcircumflex
ENCODING 309
SWIDTH 278 0
DWIDTH 5 0
BBX 8 16 -2 -3
BITMAP
06
1B
31
00
1C
0C
0C
0C
0C
0C
18
18
18
18
D0
E0
ENDCHAR
STARTCHAR Kcommaaccent
ENCODING 310
SWIDTH 667 0
DWIDTH 13 0
BBX 12 18 2 -5
BITMAP
3CF0
1860
18C0
1980
3200
3400
3C00
3600
6300
6300
6180
61C0
F3E0
0000
0600
0600
0600
0C00
ENDCHAR
STARTCHAR kcommaaccent
ENCODING 311
SWIDTH 444 0
DWIDTH 8 0
BBX 8 19 1 -5
BITMAP
70
30
30
20
60
67
66
68
70
E0
F0
D8
DE
CC
00
30
30
30
60
ENDCHAR
STARTCHAR kgreenlandic
ENCODING 312
SWIDTH 444 0
DWIDTH 8 0
BBX 8 9 1 0
BITMAP
67
66
68
70
E0
F0
D8
DE
CC
ENDCHAR
STARTCHAR Lacute
ENCODING 313
SWIDTH 556 0
DWIDTH 10 0
BBX 10 17 1 0
BITMAP
0600
0C00
1000
0000
3C00
1800
1800
1800
3000
3000
3000
3000
6000
6040
6040
6180
FF80
ENDCHAR
STARTCHAR lacute
ENCODING 314
SWIDTH 278 0
DWIDTH 5 0
BBX 6 18 1 0
BITMAP
0C
18
20
00
70
30
30
20
60
60
60
60
60
C0
C0
C0
D0
E0
ENDCHAR
STARTCHAR Lcommaaccent
ENCODING 315
SWIDTH 556 0
DWIDTH 10 0
BBX 10 18 1 -5
BITMAP
3C00
1800
1800
1800
3000
3000
3000
3000
6000
6040
6040
6180
FF80
0000
0C00
0C00
0C00
1800
ENDCHAR
STARTCHAR lcommaaccent
ENCODING 316
SWIDTH 278 0
DWIDTH 5 0
BBX 4 19 1 -5
BITMAP
70
30
30
20
60
60
60
60
60
C0
C0
C0
D0
E0
00
60
60
60
C0
ENDCHAR
STARTCHAR Lcaron
ENCODING 317
SWIDTH 861 0
DWIDTH 16 0
BBX 14 13 1 0
BITMAP
3C0C
180C
1804
1808
3000
3000
3000
3000
6000
6040
6040
6180
FF80
ENDCHAR
STARTCHAR lcaron
ENCODING 318
SWIDTH 597 0
DWIDTH 11 0
BBX 9 14 1 0
BITMAP
7000
3180
3180
2080
6100
6000
6000
6000
6000
C000
C000
C000
D000
E000
ENDCHAR
STARTCHAR Ldot
ENCODING 319
SWIDTH 778 0
DWIDTH 15 0
BBX 13 13 1 0
BITMAP
3C00
1800
1800
1800
3000
3000
3000
3018
6018
6040
6040
6180
FF80
ENDCHAR
STARTCHAR ldot
ENCODING 320
SWIDTH 514 0
DWIDTH 10 0
BBX 8 14 1 0
BITMAP
70
30
30
20
60
60
60
60
63
C3
C0
C0
D0
E0
ENDCHAR
STARTCHAR Lslash
ENCODING 321
SWIDTH 556 0
DWIDTH 10 0
BBX 10 13 1 0
BITMAP
3C00
1800
1800
1800
3400
3800
3000
6000
E000
6040
6040
6180
FF80
ENDCHAR
STARTCHAR lslash
ENCODING 322
SWIDTH 278 0
DWIDTH 5 0
BBX 6 13 0 0
BITMAP
38
18
18
10
34
38
70
B0
30
60
60
68
70
ENDCHAR
STARTCHAR Nacute
ENCODING 323
SWIDTH 667 0
DWIDTH 12 0
BBX 14 17 0 0
BITMAP
00C0
0180
0200
0000
3C3C
0C08
1E08
1618
1710
1310
3330
31B0
21A0
21E0
60E0
60C0
F040
ENDCHAR
STARTCHAR nacute
ENCODING 324
SWIDTH 500 0
DWIDTH 10 0
BBX 9 13 1 0
BITMAP
0600
0C00
1000
0000
E600
6F00
7300
6300
6300
C600
C600
C680
C700
ENDCHAR
STARTCHAR Ncommaaccent
ENCODING 325
SWIDTH 667 0
DWIDTH 12 0
BBX 14 18 0 -5
BITMAP
3C3C
0C08
1E08
1618
1710
1310
3330
31B0
21A0
21E0
60E0
60C0
F040
0000
0600
0600
0600
0C00
ENDCHAR
STARTCHAR ncommaaccent
ENCODING 326
SWIDTH 500 0
DWIDTH 10 0
BBX 9 14 1 -5
BITMAP
E600
6F00
7300
6300
6300
C600
C600
C680
C700
0000
1800
1800
1800
3000
ENDCHAR
STARTCHAR Ncaron
ENCODING 327
SWIDTH 667 0
DWIDTH 12 0
BBX 14 17 0 0
BITMAP
0440
0280
0300
0000
3C3C
0C08
1E08
1618
1710
1310
3330
31B0
21A0
21E0
60E0
60C0
F040
ENDCHAR
STARTCHAR ncaron
ENCODING 328
SWIDTH 500 0
DWIDTH 10 0
BBX 9 13 1 0
BITMAP
2200
1400
1800
0000
E600
6F00
7300
6300
6300
C600
C600
C680
C700
ENDCHAR
STARTCHAR napostrophe
ENCODING 329
SWIDTH 816 0
DWIDTH 16 0
BBX 13 13 3 0
BITMAP
C000
C000
4000
8000
0E60
06F0
0730
0630
0630
0C60
0C60
0C68
0C70
ENDCHAR
STARTCHAR Eng
ENCODING 330
SWIDTH 667 0
DWIDTH 12 0
BBX 14 16 0 -3
BITMAP
3C3C
0C08
1E08
1618
1710
1310
3330
31B0
21A0
21E0
60E0
60C0
F0C0
00C0
0680
0700
ENDCHAR
STARTCHAR eng
ENCODING 331
SWIDTH 500 0
DWIDTH 10 0
BBX 8 12 1 -3
BITMAP
E6
6F
73
63
63
C6
CC
CC
CC
0C
68
70
ENDCHAR
STARTCHAR Omacron
ENCODING 332
SWIDTH 722 0
DWIDTH 14 0
BBX 12 15 2 0
BITMAP
0780
0000
03C0
0C60
3830
3030
7030
6030
E070
C060
C0E0
C0C0
41C0
6380
3E00
ENDCHAR
STARTCHAR omacron
ENCODING 333
SWIDTH 500 0
DWIDTH 9 0
BBX 8 11 1 0
BITMAP
1E
00
1E
67
43
C3
C3
C3
C2
E6
78
ENDCHAR
STARTCHAR Obreve
ENCODING 334
SWIDTH 722 0
DWIDTH 14 0
BBX 12 17 2 0
BITMAP
0840
0C80
0700
0000
03C0
0C60
3830
3030
7030
6030
E070
C060
C0E0
C0C0
41C0
6380
3E00
ENDCHAR
STARTCHAR obreve
ENCODING 335
SWIDTH 500 0
DWIDTH 9 0
BBX 8 13 1 0
BITMAP
21
32
1C
00
1E
67
43
C3
C3
C3
C2
E6
78
ENDCHAR
STARTCHAR Ohungarumlaut
ENCODING 336
SWIDTH 722 0
DWIDTH 14 0
BBX 12 17 2 0
BITMAP
0360
06C0
0900
0000
03C0
0C60
3830
3030
7030
6030
E070
C060
C0E0
C0C0
41C0
6380
3E00
ENDCHAR
STARTCHAR ohungarumlaut
ENCODING 337
SWIDTH 500 0
DWIDTH 9 0
BBX 9 13 1 0
BITMAP
0D80
1B00
2400
0000
1E00
6700
4300
C300
C300
C300
C200
E600
7800
ENDCHAR
STARTCHAR OE
ENCODING 338
SWIDTH 944 0
DWIDTH 18 0
BBX 16 13 2 0
BITMAP
03FF
0C63
3861
3061
70C4
60CC
E0F8
C0C8
C188
C182
4182
638C
3FFC
ENDCHAR
STARTCHAR oe
ENCODING 339
SWIDTH 667 0
DWIDTH 13 0
BBX 13 8 0 0
BITMAP
1C70
6798
4318
C330
C3C0
C308
E790
7DE0
ENDCHAR
STARTCHAR Racute
ENCODING 340
SWIDTH 611 0
DWIDTH 12 0
BBX 11 17 1 0
BITMAP
0180
0300
0400
0000
3FC0
18E0
1860
1860
30E0
31C0
3F00
3600
6300
6380
6180
61C0
F0E0
ENDCHAR
STARTCHAR racute
ENCODING 341
SWIDTH 389 0
DWIDTH 6 0
BBX 6 13 1 0
BITMAP
0C
18
20
00
EC
6C
70
60
60
C0
C0
C0
C0
ENDCHAR
STARTCHAR Rcommaaccent
ENCODING 342
SWIDTH 611 0
DWIDTH 12 0
BBX 11 18 1 -5
BITMAP
3FC0
18E0
1860
1860
30E0
31C0
3F00
3600
6300
6380
6180
61C0
F0E0
0000
0600
0600
0600
0C00
ENDCHAR
STARTCHAR rcommaaccent
ENCODING 343
SWIDTH 389 0
DWIDTH 6 0
BBX 6 14 1 -5
BITMAP
EC
6C
70
60
60
C0
C0
C0
C0
00
60
60
60
C0
ENDCHAR
STARTCHAR Rcaron
ENCODING 344
SWIDTH 611 0
DWIDTH 12 0
BBX 11 17 1 0
BITMAP
0880
0500
0600
0000
3FC0
18E0
1860
1860
30E0
31C0
3F00
3600
6300
6380
6180
61C0
F0E0
ENDCHAR
STARTCHAR rcaron
ENCODING 345
SWIDTH 389 0
DWIDTH 6 0
BBX 6 13 1 0
BITMAP
44
28
30
00
EC
6C
70
60
60
C0
C0
C0
C0
ENDCHAR
STARTCHAR Sacute
ENCODING 346
SWIDTH 500 0
DWIDTH 9 0
BBX 9 17 1 0
BITMAP
0300
0600
0800
0000
0F80
1980
3080
3080
3800
1C00
0E00
0F00
0700
8300
8300
C600
FC00
ENDCHAR
STARTCHAR sacute
ENCODING 347
SWIDTH 389 0
DWIDTH 8 0
BBX 7 13 1 0
BITMAP
06
0C
10
00
3E
66
62
30
18
18
8C
CC
F8
ENDCHAR
STARTCHAR Scircumflex
ENCODING 348
SWIDTH 500 0
DWIDTH 9 0
BBX 9 17 1 0
BITMAP
0300
0D80
1880
0000
0F80
1980
3080
3080
3800
1C00
0E00
0F00
0700
8300
8300
C600
FC00
ENDCHAR
STARTCHAR scircumflex
ENCODING 349
SWIDTH 389 0
DWIDTH 8 0
BBX 7 13 1 0
BITMAP
0C
36
62
00
3E
66
62
30
18
18
8C
CC
F8
ENDCHAR
STARTCHAR Scedilla
ENCODING 350
SWIDTH 500 0
DWIDTH 9 0
BBX 9 17 1 -4
BITMAP
0F80
1980
3080
3080
3800
1C00
0E00
0F00
0700
8300
8300
C600
FC00
1000
1800
5800
3000
ENDCHAR
STARTCHAR scedilla
ENCODING 351
SWIDTH 389 0
DWIDTH 8 0
BBX 7 13 1 -4
BITMAP
3E
66
62
30
18
18
8C
CC
F8
10
18
58
30
ENDCHAR
STARTCHAR Scaron
ENCODING 352
SWIDTH 500 0
DWIDTH 9 0
BBX 9 14 1 0
BITMAP
0880
0500
0600
0000
0F80
1980
3080
3080
1800
0E00
8300
8300
C600
FC00
ENDCHAR
STARTCHAR scaron
ENCODING 353
SWIDTH 389 0
DWIDTH 8 0
BBX 6 12 1 0
BITMAP
44
28
30
00
3C
64
60
30
18
8C
CC
F8
ENDCHAR
STARTCHAR Tcommaaccent
ENCODING 354
SWIDTH 556 0
DWIDTH 10 0
BBX 11 17 1 -4
BITMAP
7FE0
C660
8620
0600
0C00
0C00
0C00
0C00
1800
1800
1800
1800
3C00
0800
0C00
2C00
1800
ENDCHAR
STARTCHAR tcommaaccent
ENCODING 355
SWIDTH 278 0
DWIDTH 5 0
BBX 6 15 0 -4
BITMAP
08
18
7C
30
30
30
60
60
60
68
30
20
30
B0
60
ENDCHAR
STARTCHAR Tcaron
ENCODING 356
SWIDTH 556 0
DWIDTH 10 0
BBX 11 17 1 0
BITMAP
0880
0500
0600
0000
7FE0
C660
8620
0600
0C00
0C00
0C00
0C00
1800
1800
1800
1800
3C00
ENDCHAR
STARTCHAR tcaron
ENCODING 357
SWIDTH 597 0
DWIDTH 11 0
BBX 9 13 1 0
BITMAP
0180
0180
1080
3100
F800
6000
6000
6000
C000
C000
C000
D000
6000
ENDCHAR
STARTCHAR Tbar
ENCODING 358
SWIDTH 556 0
DWIDTH 10 0
BBX 11 13 1 0
BITMAP
7FE0
C660
8620
0600
0C00
0C00
1F80
0C00
1800
1800
1800
1800
3C00
ENDCHAR
STARTCHAR tbar
ENCODING 359
SWIDTH 278 0
DWIDTH 5 0
BBX 6 11 1 0
BITMAP
10
30
F8
60
60
FC
C0
C0
C0
D0
60
ENDCHAR
STARTCHAR Utilde
ENCODING 360
SWIDTH 722 0
DWIDTH 14 0
BBX 13 17 2 0
BITMAP
0640
0FC0
0980
0000
7C78
3030
3020
3020
6060
6040
6040
E0C0
C080
C180
C180
E300
7E00
ENDCHAR
STARTCHAR utilde
ENCODING 361
SWIDTH 500 0
DWIDTH 9 0
BBX 8 13 1 0
BITMAP
32
7E
4C
00
E3
63
63
43
C6
C6
CE
F7
66
ENDCHAR
STARTCHAR Umacron
ENCODING 362
SWIDTH 722 0
DWIDTH 14 0
BBX 13 15 2 0
BITMAP
0F00
0000
7C78
3030
3020
3020
6060
6040
6040
E0C0
C080
C180
C180
E300
7E00
ENDCHAR
STARTCHAR umacron
ENCODING 363
SWIDTH 500 0
DWIDTH 9 0
BBX 8 11 1 0
BITMAP
3C
00
E3
63
63
43
C6
C6
CE
F7
66
ENDCHAR
STARTCHAR Ubreve
ENCODING 364
SWIDTH 722 0
DWIDTH 14 0
BBX 13 17 2 0
BITMAP
0840
0C80
0700
0000
7C78
3030
3020
3020
6060
6040
6040
E0C0
C080
C180
C180
E300
7E00
ENDCHAR
STARTCHAR ubreve
ENCODING 365
SWIDTH 500 0
DWIDTH 9 0
BBX 8 13 1 0
BITMAP
42
64
38
00
E3
63
63
43
C6
C6
CE
F7
66
ENDCHAR
STARTCHAR Uring
ENCODING 366
SWIDTH 722 0
DWIDTH 14 0
BBX 13 18 2 0
BITMAP
0600
0900
0900
0600
0000
7C78
3030
3020
3020
6060
6040
6040
E0C0
C080
C180
C180
E300
7E00
ENDCHAR
STARTCHAR uring
ENCODING 367
SWIDTH 500 0
DWIDTH 9 0
BBX 8 14 1 0
BITMAP
18
24
24
18
00
E3
63
63
43
C6
C6
CE
F7
66
ENDCHAR
STARTCHAR Uhungarumlaut
ENCODING 368
SWIDTH 722 0
DWIDTH 14 0
BBX 13 17 2 0
BITMAP
0360
06C0
0900
0000
7C78
3030
3020
3020
6060
6040
6040
E0C0
C080
C180
C180
E300
7E00
ENDCHAR
STARTCHAR uhungarumlaut
ENCODING 369
SWIDTH 500 0
DWIDTH 9 0
BBX 9 13 1 0
BITMAP
0D80
1B00
2400
0000
E300
6300
6300
4300
C600
C600
CE00
F700
6600
ENDCHAR
STARTCHAR Uogonek
ENCODING 370
SWIDTH 722 0
DWIDTH 14 0
BBX 13 17 2 -4
BITMAP
7C78
3030
3020
3020
6060
6040
6040
E0C0
C080
C180
C180
E300
7E00
0800
1800
1A00
0E00
ENDCHAR
STARTCHAR uogonek
ENCODING 371
SWIDTH 500 0
DWIDTH 9 0
BBX 8 13 1 -4
BITMAP
E3
63
63
43
C6
C6
CE
F7
66
10
30
34
1C
ENDCHAR
STARTCHAR Wcircumflex
ENCODING 372
SWIDTH 833 0
DWIDTH 15 0
BBX 15 17 2 0
BITMAP
00C0
0360
0620
0000
F3CE
6184
638C
6388
6598
6590
65A0
69A0
69C0
71C0
6180
6180
4100
ENDCHAR
STARTCHAR wcircumflex
ENCODING 373
SWIDTH 667 0
DWIDTH 13 0
BBX 13 13 0 0
BITMAP
0180
06C0
0C40
0000
E318
6318
6310
6330
35A0
35A0
39C0
3180
2100
ENDCHAR
STARTCHAR Ycircumflex
ENCODING 374
SWIDTH 556 0
DWIDTH 11 0
BBX 11 17 2 0
BITMAP
0300
0D80
1880
0000
F9E0
60C0
7180
3300
3600
1C00
1800
1800
1800
3000
3000
3000
FC00
ENDCHAR
STARTCHAR ycircumflex
ENCODING 375
SWIDTH 444 0
DWIDTH 8 0
BBX 9 17 -1 -4
BITMAP
0600
1B00
3100
0000
7180
3180
3100
3300
1A00
1A00
1C00
0C00
0800
1800
1000
B000
E000
ENDCHAR
STARTCHAR Ydieresis
ENCODING 376
SWIDTH 556 0
DWIDTH 11 0
BBX 11 13 2 0
BITMAP
1B00
1B00
0000
F9E0
30C0
3180
3300
1E00
1C00
1800
3000
3000
FC00
ENDCHAR
STARTCHAR Zacute
ENCODING 377
SWIDTH 556 0
DWIDTH 10 0
BBX 12 17 0 0
BITMAP
00C0
0180
0200
0000
3FF0
60E0
40C0
0180
0300
0600
0600
0C00
1800
3800
3020
7060
FFC0
ENDCHAR
STARTCHAR zacute
ENCODING 378
SWIDTH 389 0
DWIDTH 7 0
BBX 7 13 0 0
BITMAP
06
0C
10
00
7E
46
0C
18
18
30
60
C4
FC
ENDCHAR
STARTCHAR Zdotaccent
ENCODING 379
SWIDTH 556 0
DWIDTH 10 0
BBX 12 16 0 0
BITMAP
0300
0300
0000
3FF0
60E0
40C0
0180
0300
0600
0600
0C00
1800
3800
3020
7060
FFC0
ENDCHAR
STARTCHAR zdotaccent
ENCODING 380
SWIDTH 389 0
DWIDTH 7 0
BBX 7 12 0 0
BITMAP
18
18
00
7E
46
0C
18
18
30
60
C4
FC
ENDCHAR
STARTCHAR Zcaron
ENCODING 381
SWIDTH 556 0
DWIDTH 10 0
BBX 12 14 0 0
BITMAP
0440
0280
0300
0000
3FF0
6060
40C0
0380
0600
0C00
1800
3020
6060
FFC0
ENDCHAR
STARTCHAR zcaron
ENCODING 382
SWIDTH 389 0
DWIDTH 7 0
BBX 8 12 0 0
BITMAP
11
0A
0C
00
7E
46
0C
18
30
60
C4
FC
ENDCHAR
STARTCHAR uni0186
ENCODING 390
SWIDTH 667 0
DWIDTH 12 0
BBX 12 13 2 0
BITMAP
07C0
1860
2020
0030
0030
0030
0070
0060
0060
40C0
41C0
E300
BC00
ENDCHAR
STARTCHAR uni0189
ENCODING 393
SWIDTH 722 0
DWIDTH 14 0
BBX 13 13 1 0
BITMAP
3FC0
1870
1838
1818
3018
3018
FC38
3030
6070
6060
60C0
6380
FE00
ENDCHAR
STARTCHAR uni018E
ENCODING 398
SWIDTH 611 0
DWIDTH 11 0
BBX 10 13 1 0
BITMAP
7FC0
6180
8180
8180
1180
1300
1F00
2300
2300
8600
8600
C600
FF00
ENDCHAR
STARTCHAR florin
ENCODING 402
SWIDTH 500 0
DWIDTH 9 0
BBX 9 17 0 -4
BITMAP
0380
0680
0400
0C00
0C00
3F00
0C00
0C00
0C00
0C00
1800
1800
1800
1800
9000
D000
E000
ENDCHAR
STARTCHAR uni0197
ENCODING 407
SWIDTH 333 0
DWIDTH 6 0
BBX 6 13 1 0
BITMAP
3C
18
18
18
30
30
FC
30
60
60
60
60
F0
ENDCHAR
STARTCHAR uni019A
ENCODING 410
SWIDTH 278 0
DWIDTH 5 0
BBX 6 14 0 0
BITMAP
38
18
18
10
30
30
FC
30
30
60
60
60
68
70
ENDCHAR
STARTCHAR uni019D
ENCODING 413
SWIDTH 667 0
DWIDTH 12 0
BBX 16 16 -2 -3
BITMAP
0F0F
0302
0782
0586
05C4
04C4
0CCC
0C6C
0868
0C78
1838
1830
1810
1800
D000
E000
ENDCHAR
STARTCHAR uni019F
ENCODING 415
SWIDTH 722 0
DWIDTH 14 0
BBX 12 13 2 0
BITMAP
03C0
0C60
3830
3030
7030
6030
FFF0
C060
C0E0
C0C0
41C0
6380
3E00
ENDCHAR
STARTCHAR Ohorn
ENCODING 416
SWIDTH 722 0
DWIDTH 14 0
BBX 13 13 2 0
BITMAP
03D8
0C78
3838
3030
7030
6030
E070
C060
C0E0
C0C0
41C0
6380
3E00
ENDCHAR
STARTCHAR ohorn
ENCODING 417
SWIDTH 500 0
DWIDTH 9 0
BBX 10 9 1 0
BITMAP
1EC0
67C0
4340
C380
C300
C300
C200
E600
7800
ENDCHAR
STARTCHAR Uhorn
ENCODING 431
SWIDTH 722 0
DWIDTH 14 0
BBX 14 13 2 0
BITMAP
7C7C
303C
3024
3028
6060
6040
6040
E0C0
C080
C180
C180
E300
7E00
ENDCHAR
STARTCHAR uhorn
ENCODING 432
SWIDTH 500 0
DWIDTH 9 0
BBX 10 9 1 0
BITMAP
E3C0
63C0
6340
4380
C600
C600
CE00
F700
6600
ENDCHAR
STARTCHAR uni01B5
ENCODING 437
SWIDTH 556 0
DWIDTH 10 0
BBX 12 13 0 0
BITMAP
3FF0
60E0
40C0
0180
0300
0600
1F80
0C00
1800
3800
3020
7060
FFC0
ENDCHAR
STARTCHAR uni01B6
ENCODING 438
SWIDTH 389 0
DWIDTH 7 0
BBX 7 9 0 0
BITMAP
7E
46
0C
18
7E
30
60
C4
FC
ENDCHAR
STARTCHAR uni01BB
ENCODING 443
SWIDTH 500 0
DWIDTH 9 0
BBX 8 13 1 0
BITMAP
1E
3F
43
03
03
06
FF
0C
18
30
62
FE
FE
ENDCHAR
STARTCHAR uni01BC
ENCODING 444
SWIDTH 500 0
DWIDTH 9 0
BBX 9 13 1 0
BITMAP
1F80
1F00
1000
3000
3C00
3E00
0700
0300
0300
0300
0600
CC00
F800
ENDCHAR
STARTCHAR uni01C0
ENCODING 448
SWIDTH 275 0
DWIDTH 5 0
BBX 5 17 0 -4
BITMAP
08
08
08
10
10
10
20
20
20
40
40
40
40
80
80
80
80
ENDCHAR
STARTCHAR uni01C2
ENCODING 450
SWIDTH 675 0
DWIDTH 13 0
BBX 8 17 2 -4
BITMAP
02
02
02
04
04
04
08
FF
08
10
FF
10
10
20
20
20
20
ENDCHAR
STARTCHAR uni01C3
ENCODING 451
SWIDTH 333 0
DWIDTH 6 0
BBX 5 13 1 0
BITMAP
18
18
18
30
30
30
20
60
40
40
00
C0
C0
ENDCHAR
STARTCHAR uni01CD
ENCODING 461
SWIDTH 611 0
DWIDTH 11 0
BBX 11 17 0 0
BITMAP
0440
0280
0300
0000
00C0
01C0
01C0
02C0
06C0
04C0
0CC0
08C0
1FC0
30C0
20C0
60C0
F1E0
ENDCHAR
STARTCHAR uni01CE
ENCODING 462
SWIDTH 500 0
DWIDTH 10 0
BBX 9 13 1 0
BITMAP
1100
0A00
0C00
0000
1E80
6700
4300
C300
C600
C600
C600
EE80
3300
ENDCHAR
STARTCHAR uni01CF
ENCODING 463
SWIDTH 333 0
DWIDTH 6 0
BBX 7 17 1 0
BITMAP
22
14
18
00
3C
18
18
18
30
30
30
30
60
60
60
60
F0
ENDCHAR
STARTCHAR uni01D0
ENCODING 464
SWIDTH 278 0
DWIDTH 5 0
BBX 5 12 1 0
BITMAP
88
50
60
00
E0
60
60
40
C0
C0
D0
E0
ENDCHAR
STARTCHAR uni01D1
ENCODING 465
SWIDTH 722 0
DWIDTH 14 0
BBX 12 17 2 0
BITMAP
0440
0280
0300
0000
03C0
0C60
3830
3030
7030
6030
E070
C060
C0E0
C0C0
41C0
6380
3E00
ENDCHAR
STARTCHAR uni01D2
ENCODING 466
SWIDTH 500 0
DWIDTH 9 0
BBX 8 13 1 0
BITMAP
22
14
18
00
1E
67
43
C3
C3
C3
C2
E6
78
ENDCHAR
STARTCHAR uni01D3
ENCODING 467
SWIDTH 722 0
DWIDTH 14 0
BBX 13 17 2 0
BITMAP
0880
0500
0600
0000
7C78
3030
3020
3020
6060
6040
6040
E0C0
C080
C180
C180
E300
7E00
ENDCHAR
STARTCHAR uni01D4
ENCODING 468
SWIDTH 500 0
DWIDTH 9 0
BBX 8 13 1 0
BITMAP
22
14
18
00
E3
63
63
43
C6
C6
CE
F7
66
ENDCHAR
STARTCHAR uni01D5
ENCODING 469
SWIDTH 722 0
DWIDTH 14 0
BBX 13 18 2 0
BITMAP
0780
0000
0660
0660
0000
7C78
3030
3020
3020
6060
6040
6040
E0C0
C080
C180
C180
E300
7E00
ENDCHAR
STARTCHAR uni01D6
ENCODING 470
SWIDTH 500 0
DWIDTH 9 0
BBX 8 14 1 0
BITMAP
3C
00
36
36
00
E3
63
63
C6
C6
C6
CE
F7
66
ENDCHAR
STARTCHAR uni01D7
ENCODING 471
SWIDTH 722 0
DWIDTH 14 0
BBX 13 20 2 0
BITMAP
00C0
0180
0200
0000
0660
0660
0000
7C78
3030
3020
3020
6060
6040
6040
E0C0
C080
C180
C180
E300
7E00
ENDCHAR
STARTCHAR uni01D8
ENCODING 472
SWIDTH 500 0
DWIDTH 9 0
BBX 8 16 1 0
BITMAP
06
0C
10
00
36
36
00
E3
63
63
C6
C6
C6
CE
F7
66
ENDCHAR
STARTCHAR uni01D9
ENCODING 473
SWIDTH 722 0
DWIDTH 14 0
BBX 13 20 2 0
BITMAP
0440
0280
0300
0000
0660
0660
0000
7C78
3030
3020
3020
6060
6040
6040
E0C0
C080
C180
C180
E300
7E00
ENDCHAR
STARTCHAR uni01DA
ENCODING 474
SWIDTH 500 0
DWIDTH 9 0
BBX 8 16 1 0
BITMAP
22
14
18
00
36
36
00
E3
63
63
C6
C6
C6
CE
F7
66
ENDCHAR
STARTCHAR uni01DB
ENCODING 475
SWIDTH 722 0
DWIDTH 14 0
BBX 13 20 2 0
BITMAP
0C00
0600
0100
0000
0660
0660
0000
7C78
3030
3020
3020
6060
6040
6040
E0C0
C080
C180
C180
E300
7E00
ENDCHAR
STARTCHAR uni01DC
ENCODING 476
SWIDTH 500 0
DWIDTH 9 0
BBX 8 16 1 0
BITMAP
60
30
08
00
36
36
00
E3
63
63
C6
C6
C6
CE
F7
66
ENDCHAR
STARTCHAR uni01DD
ENCODING 477
SWIDTH 444 0
DWIDTH 8 0
BBX 7 9 1 0
BITMAP
3C
4E
86
0E
3E
66
C4
CC
70
ENDCHAR
STARTCHAR uni01DE
ENCODING 478
SWIDTH 611 0
DWIDTH 11 0
BBX 11 18 0 0
BITMAP
03C0
0000
0360
0360
0000
00C0
01C0
01C0
02C0
06C0
04C0
0CC0
08C0
1FC0
30C0
20C0
60C0
F1E0
ENDCHAR
STARTCHAR uni01DF
ENCODING 479
SWIDTH 500 0
DWIDTH 10 0
BBX 9 14 1 0
BITMAP
1E00
0000
3600
3600
0000
1E80
6700
4300
C300
C600
C600
C600
EE80
3300
ENDCHAR
STARTCHAR uni01E0
ENCODING 480
SWIDTH 611 0
DWIDTH 11 0
BBX 11 18 0 0
BITMAP
0780
0000
0180
0180
0000
00C0
01C0
01C0
02C0
06C0
04C0
0CC0
08C0
1FC0
30C0
20C0
60C0
F1E0
ENDCHAR
STARTCHAR uni01E1
ENCODING 481
SWIDTH 500 0
DWIDTH 10 0
BBX 9 14 1 0
BITMAP
1E00
0000
0C00
0C00
0000
1E80
6700
4300
C300
C600
C600
C600
EE80
3300
ENDCHAR
STARTCHAR uni01E2
ENCODING 482
SWIDTH 889 0
DWIDTH 16 0
BBX 16 15 0 0
BITMAP
00F0
0000
03FF
01E3
0161
0261
0664
0464
0CF8
08C8
1FC8
10C1
20C1
60C7
F1FE
ENDCHAR
STARTCHAR uni01E3
ENCODING 483
SWIDTH 667 0
DWIDTH 13 0
BBX 12 11 1 0
BITMAP
0780
0000
1AE0
6730
4230
C660
C7C0
C700
C610
EF60
33C0
ENDCHAR
STARTCHAR uni01E4
ENCODING 484
SWIDTH 722 0
DWIDTH 14 0
BBX 13 13 2 0
BITMAP
03D0
0C70
3820
3020
6000
6000
E000
C1F0
C0C0
C1F8
4180
6180
3F00
ENDCHAR
STARTCHAR uni01E5
ENCODING 485
SWIDTH 500 0
DWIDTH 8 0
BBX 10 13 -1 -4
BITMAP
0FC0
1B00
3180
3180
3300
3B00
1E00
1000
3F00
FFC0
C180
E300
7C00
ENDCHAR
STARTCHAR Gcaron
ENCODING 486
SWIDTH 722 0
DWIDTH 14 0
BBX 12 17 2 0
BITMAP
0440
0280
0300
0000
03D0
0C70
3820
3020
6000
6000
E000
C1F0
C0C0
C0C0
4180
6180
3F00
ENDCHAR
STARTCHAR gcaron
ENCODING 487
SWIDTH 500 0
DWIDTH 8 0
BBX 10 17 -1 -4
BITMAP
0880
0500
0600
0000
0FC0
1B00
3180
3180
3300
3B00
1E00
1000
3F00
6380
C180
E300
7C00
ENDCHAR
STARTCHAR uni01E8
ENCODING 488
SWIDTH 667 0
DWIDTH 13 0
BBX 12 17 2 0
BITMAP
0880
0500
0600
0000
3CF0
1860
18C0
1980
3200
3400
3C00
3600
6300
6300
6180
61C0
F3E0
ENDCHAR
STARTCHAR uni01E9
ENCODING 489
SWIDTH 444 0
DWIDTH 8 0
BBX 8 18 1 0
BITMAP
44
28
30
00
70
30
30
20
60
67
66
68
70
E0
F0
D8
DE
CC
ENDCHAR
STARTCHAR uni01EA
ENCODING 490
SWIDTH 722 0
DWIDTH 14 0
BBX 12 17 2 -4
BITMAP
03C0
0C60
3830
3030
7030
6030
E070
C060
C0E0
C0C0
41C0
6380
3E00
0400
0C00
0D00
0700
ENDCHAR
STARTCHAR uni01EB
ENCODING 491
SWIDTH 500 0
DWIDTH 9 0
BBX 8 13 1 -4
BITMAP
1E
67
43
C3
C3
C3
C2
E6
78
10
30
34
1C
ENDCHAR
STARTCHAR uni01EC
ENCODING 492
SWIDTH 722 0
DWIDTH 14 0
BBX 12 19 2 -4
BITMAP
0780
0000
03C0
0C60
3830
3030
7030
6030
E070
C060
C0E0
C0C0
41C0
6380
3E00
0400
0C00
0D00
0700
ENDCHAR
STARTCHAR uni01ED
ENCODING 493
SWIDTH 500 0
DWIDTH 9 0
BBX 8 15 1 -4
BITMAP
3C
00
1E
67
43
C3
C3
C3
C2
E6
78
10
30
34
1C
ENDCHAR
STARTCHAR uni01F0
ENCODING 496
SWIDTH 278 0
DWIDTH 5 0
BBX 7 16 -2 -3
BITMAP
22
14
18
00
1C
0C
0C
0C
0C
0C
18
18
18
18
D0
E0
ENDCHAR
STARTCHAR uni01F4
ENCODING 500
SWIDTH 722 0
DWIDTH 14 0
BBX 12 17 2 0
BITMAP
00C0
0180
0200
0000
03D0
0C70
3820
3020
6000
6000
E000
C1F0
C0C0
C0C0
4180
6180
3F00
ENDCHAR
STARTCHAR uni01F5
ENCODING 501
SWIDTH 500 0
DWIDTH 8 0
BBX 10 17 -1 -4
BITMAP
0180
0300
0400
0000
0FC0
1B00
3180
3180
3300
3B00
1E00
1000
3F00
6380
C180
E300
7C00
ENDCHAR
STARTCHAR uni01F8
ENCODING 504
SWIDTH 667 0
DWIDTH 12 0
BBX 14 17 0 0
BITMAP
0C00
0600
0100
0000
3C3C
0C08
1E08
1618
1710
1310
3330
31B0
21A0
21E0
60E0
60C0
F040
ENDCHAR
STARTCHAR uni01F9
ENCODING 505
SWIDTH 500 0
DWIDTH 10 0
BBX 9 13 1 0
BITMAP
6000
3000
0800
0000
E600
6F00
7300
6300
6300
C600
C600
C680
C700
ENDCHAR
STARTCHAR Aringacute
ENCODING 506
SWIDTH 611 0
DWIDTH 11 0
BBX 11 21 0 0
BITMAP
0060
00C0
0100
0000
00C0
0120
0120
00C0
00C0
01C0
01C0
02C0
06C0
04C0
0CC0
08C0
1FC0
30C0
20C0
60C0
F1E0
ENDCHAR
STARTCHAR aringacute
ENCODING 507
SWIDTH 500 0
DWIDTH 10 0
BBX 9 18 1 0
BITMAP
0300
0600
0800
0000
0C00
1200
1200
0C00
0000
1E80
6700
4300
C300
C600
C600
C600
EE80
3300
ENDCHAR
STARTCHAR AEacute
ENCODING 508
SWIDTH 889 0
DWIDTH 16 0
BBX 16 17 0 0
BITMAP
0018
0030
0040
0000
03FF
01E3
0161
0261
0664
0464
0CF8
08C8
1FC8
10C1
20C1
60C7
F1FE
ENDCHAR
STARTCHAR aeacute
ENCODING 509
SWIDTH 667 0
DWIDTH 13 0
BBX 12 13 1 0
BITMAP
00C0
0180
0200
0000
1AE0
6730
4230
C660
C7C0
C700
C610
EF60
33C0
ENDCHAR
STARTCHAR Oslashacute
ENCODING 510
SWIDTH 722 0
DWIDTH 14 0
BBX 12 20 2 -2
BITMAP
00C0
0180
0200
0000
0010
03F0
0C60
38F0
31B0
7330
6330
E670
CC60
C8E0
D8C0
71C0
6380
7E00
C000
8000
ENDCHAR
STARTCHAR oslashacute
ENCODING 511
SWIDTH 500 0
DWIDTH 9 0
BBX 8 17 1 -2
BITMAP
03
06
08
00
01
02
1E
67
4B
CB
D3
D3
E2
E6
78
40
80
ENDCHAR
STARTCHAR Scommaaccent
ENCODING 536
SWIDTH 500 0
DWIDTH 9 0
BBX 9 18 1 -5
BITMAP
0F80
1980
3080
3080
3800
1C00
0E00
0F00
0700
8300
8300
C600
FC00
0000
1800
1800
1800
3000
ENDCHAR
STARTCHAR scommaaccent
ENCODING 537
SWIDTH 389 0
DWIDTH 8 0
BBX 7 14 1 -5
BITMAP
3E
66
62
30
18
18
8C
CC
F8
00
30
30
30
60
ENDCHAR
STARTCHAR Tcommaaccent
ENCODING 538
SWIDTH 556 0
DWIDTH 10 0
BBX 11 18 1 -5
BITMAP
7FE0
C660
8620
0600
0C00
0C00
0C00
0C00
1800
1800
1800
1800
3C00
0000
0C00
0C00
0C00
1800
ENDCHAR
STARTCHAR tcommaaccent
ENCODING 539
SWIDTH 278 0
DWIDTH 5 0
BBX 5 16 1 -5
BITMAP
10
30
F8
60
60
60
C0
C0
C0
D0
60
00
60
60
60
C0
ENDCHAR
STARTCHAR uni021E
ENCODING 542
SWIDTH 722 0
DWIDTH 13 0
BBX 13 17 1 0
BITMAP
0440
0280
0300
0000
3C78
1830
1830
1830
3060
3060
3FE0
3060
60C0
60C0
60C0
60C0
F1E0
ENDCHAR
STARTCHAR uni021F
ENCODING 543
SWIDTH 500 0
DWIDTH 10 0
BBX 9 18 1 0
BITMAP
4400
2800
3000
0000
7000
3000
3000
2000
6000
6600
6F00
7300
6300
C600
C600
C600
C680
C700
ENDCHAR
STARTCHAR uni0226
ENCODING 550
SWIDTH 611 0
DWIDTH 11 0
BBX 11 16 0 0
BITMAP
0180
0180
0000
00C0
01C0
01C0
02C0
06C0
04C0
0CC0
08C0
1FC0
30C0
20C0
60C0
F1E0
ENDCHAR
STARTCHAR uni0227
ENCODING 551
SWIDTH 500 0
DWIDTH 10 0
BBX 9 12 1 0
BITMAP
0C00
0C00
0000
1E80
6700
4300
C300
C600
C600
C600
EE80
3300
ENDCHAR
STARTCHAR uni0228
ENCODING 552
SWIDTH 611 0
DWIDTH 11 0
BBX 10 17 1 -4
BITMAP
3FC0
18C0
1840
1840
3100
3100
3E00
3200
6200
6040
6040
6180
FF80
0800
0C00
2C00
1800
ENDCHAR
STARTCHAR uni0229
ENCODING 553
SWIDTH 444 0
DWIDTH 8 0
BBX 7 13 1 -4
BITMAP
1C
66
46
CC
F8
E0
C2
E4
78
20
30
B0
60
ENDCHAR
STARTCHAR uni022A
ENCODING 554
SWIDTH 722 0
DWIDTH 14 0
BBX 12 18 2 0
BITMAP
03C0
0000
0330
0330
0000
03C0
0C60
3830
3030
7030
6030
E070
C060
C0E0
C0C0
41C0
6380
3E00
ENDCHAR
STARTCHAR uni022B
ENCODING 555
SWIDTH 500 0
DWIDTH 9 0
BBX 8 14 1 0
BITMAP
3C
00
36
36
00
1E
67
43
C3
C3
C3
C2
E6
78
ENDCHAR
STARTCHAR uni022C
ENCODING 556
SWIDTH 722 0
DWIDTH 14 0
BBX 12 19 2 0
BITMAP
03C0
0000
0190
03F0
0260
0000
03C0
0C60
3830
3030
7030
6030
E070
C060
C0E0
C0C0
41C0
6380
3E00
ENDCHAR
STARTCHAR uni022D
ENCODING 557
SWIDTH 500 0
DWIDTH 9 0
BBX 8 15 1 0
BITMAP
1E
00
19
3F
26
00
1E
67
43
C3
C3
C3
C2
E6
78
ENDCHAR
STARTCHAR uni022E
ENCODING 558
SWIDTH 722 0
DWIDTH 14 0
BBX 12 16 2 0
BITMAP
0300
0300
0000
03C0
0C60
3830
3030
7030
6030
E070
C060
C0E0
C0C0
41C0
6380
3E00
ENDCHAR
STARTCHAR uni022F
ENCODING 559
SWIDTH 500 0
DWIDTH 9 0
BBX 8 12 1 0
BITMAP
0C
0C
00
1E
67
43
C3
C3
C3
C2
E6
78
ENDCHAR
STARTCHAR uni0230
ENCODING 560
SWIDTH 722 0
DWIDTH 14 0
BBX 12 18 2 0
BITMAP
0780
0000
0300
0300
0000
03C0
0C60
3830
3030
7030
6030
E070
C060
C0E0
C0C0
41C0
6380
3E00
ENDCHAR
STARTCHAR uni0231
ENCODING 561
SWIDTH 500 0
DWIDTH 9 0
BBX 8 14 1 0
BITMAP
1E
00
0C
0C
00
1E
67
43
C3
C3
C3
C2
E6
78
ENDCHAR
STARTCHAR uni0232
ENCODING 562
SWIDTH 556 0
DWIDTH 11 0
BBX 11 15 2 0
BITMAP
1E00
0000
F9E0
60C0
7180
3300
3600
1C00
1800
1800
1800
3000
3000
3000
FC00
ENDCHAR
STARTCHAR uni0233
ENCODING 563
SWIDTH 444 0
DWIDTH 8 0
BBX 9 15 -1 -4
BITMAP
1E00
0000
7180
3180
3100
3300
1A00
1A00
1C00
0C00
0800
1800
1000
B000
E000
ENDCHAR
STARTCHAR uni0250
ENCODING 592
SWIDTH 500 0
DWIDTH 10 0
BBX 9 9 1 0
BITMAP
6600
BB80
3180
3180
3180
6180
6100
7300
BC00
ENDCHAR
STARTCHAR uni0259
ENCODING 601
SWIDTH 444 0
DWIDTH 8 0
BBX 7 9 1 0
BITMAP
3C
4E
86
0E
3E
66
C4
CC
70
ENDCHAR
STARTCHAR uni025F
ENCODING 607
SWIDTH 278 0
DWIDTH 5 0
BBX 9 18 -1 -9
BITMAP
0180
0380
0200
0200
0600
0600
0600
0600
0C00
0C00
0C00
0C00
3F00
0C00
0C00
1800
D800
7000
ENDCHAR
STARTCHAR uni0265
ENCODING 613
SWIDTH 500 0
DWIDTH 10 0
BBX 9 14 1 -5
BITMAP
7180
B180
3180
3180
3180
6300
6700
7B00
3300
0300
0200
0600
0600
0700
ENDCHAR
STARTCHAR uni0275
ENCODING 629
SWIDTH 500 0
DWIDTH 9 0
BBX 8 9 1 0
BITMAP
1E
67
43
C3
FF
C3
C2
E6
78
ENDCHAR
STARTCHAR uni0279
ENCODING 633
SWIDTH 389 0
DWIDTH 6 0
BBX 6 9 1 0
BITMAP
0C
0C
0C
0C
18
18
38
D8
DC
ENDCHAR
STARTCHAR uni0287
ENCODING 647
SWIDTH 278 0
DWIDTH 5 0
BBX 5 11 1 0
BITMAP
30
58
18
18
18
30
30
30
F8
60
40
ENDCHAR
STARTCHAR uni0289
ENCODING 649
SWIDTH 500 0
DWIDTH 9 0
BBX 8 9 1 0
BITMAP
E3
63
63
43
FF
C6
CE
F7
66
ENDCHAR
STARTCHAR uni028C
ENCODING 652
SWIDTH 444 0
DWIDTH 8 0
BBX 8 9 0 0
BITMAP
0C
1C
1C
2C
2C
66
46
C6
C7
ENDCHAR
STARTCHAR uni028D
ENCODING 653
SWIDTH 667 0
DWIDTH 13 0
BBX 13 9 0 0
BITMAP
0420
0C60
1CE0
2D60
2D60
6630
4630
C630
C638
ENDCHAR
STARTCHAR uni028E
ENCODING 654
SWIDTH 444 0
DWIDTH 8 0
BBX 9 13 -1 0
BITMAP
0380
0680
0400
0C00
0800
1800
1C00
2C00
2C00
6600
4600
C600
C700
ENDCHAR
STARTCHAR uni029E
ENCODING 670
SWIDTH 444 0
DWIDTH 8 0
BBX 8 14 1 -5
BITMAP
33
7B
1B
0F
07
0E
16
66
E6
06
04
0C
0C
0E
ENDCHAR
STARTCHAR uni02BB
ENCODING 699
SWIDTH 333 0
DWIDTH 6 0
BBX 2 4 4 9
BITMAP
40
80
C0
C0
ENDCHAR
STARTCHAR afii57929
ENCODING 700
SWIDTH 333 0
DWIDTH 6 0
BBX 2 4 3 9
BITMAP
C0
C0
40
80
ENDCHAR
STARTCHAR afii64937
ENCODING 701
SWIDTH 333 0
DWIDTH 6 0
BBX 2 4 3 9
BITMAP
C0
C0
80
40
ENDCHAR
STARTCHAR circumflex
ENCODING 710
SWIDTH 333 0
DWIDTH 6 0
BBX 6 3 2 10
BITMAP
18
6C
C4
ENDCHAR
STARTCHAR caron
ENCODING 711
SWIDTH 333 0
DWIDTH 6 0
BBX 5 3 2 10
BITMAP
88
50
60
ENDCHAR
STARTCHAR uni02C8
ENCODING 712
SWIDTH 214 0
DWIDTH 4 0
BBX 2 4 3 9
BITMAP
C0
C0
C0
80
ENDCHAR
STARTCHAR macron
ENCODING 713
SWIDTH 333 0
DWIDTH 6 0
BBX 4 1 3 11
BITMAP
F0
ENDCHAR
STARTCHAR uni02CA
ENCODING 714
SWIDTH 333 0
DWIDTH 6 0
BBX 4 3 3 10
BITMAP
30
60
80
ENDCHAR
STARTCHAR uni02CB
ENCODING 715
SWIDTH 333 0
DWIDTH 6 0
BBX 4 3 3 10
BITMAP
C0
60
10
ENDCHAR
STARTCHAR uni02CD
ENCODING 717
SWIDTH 333 0
DWIDTH 6 0
BBX 4 1 3 -2
BITMAP
F0
ENDCHAR
STARTCHAR uni02CE
ENCODING 718
SWIDTH 333 0
DWIDTH 6 0
BBX 4 3 3 -4
BITMAP
C0
60
10
ENDCHAR
STARTCHAR uni02CF
ENCODING 719
SWIDTH 333 0
DWIDTH 6 0
BBX 4 3 3 -4
BITMAP
30
60
80
ENDCHAR
STARTCHAR breve
ENCODING 728
SWIDTH 333 0
DWIDTH 6 0
BBX 6 3 2 10
BITMAP
84
C8
70
ENDCHAR
STARTCHAR dotaccent
ENCODING 729
SWIDTH 333 0
DWIDTH 6 0
BBX 2 2 3 11
BITMAP
C0
C0
ENDCHAR
STARTCHAR ring
ENCODING 730
SWIDTH 333 0
DWIDTH 6 0
BBX 4 4 3 9
BITMAP
60
90
90
60
ENDCHAR
STARTCHAR ogonek
ENCODING 731
SWIDTH 333 0
DWIDTH 6 0
BBX 4 4 2 -4
BITMAP
40
C0
D0
70
ENDCHAR
STARTCHAR tilde
ENCODING 732
SWIDTH 333 0
DWIDTH 6 0
BBX 6 3 2 10
BITMAP
64
FC
98
ENDCHAR
STARTCHAR hungarumlaut
ENCODING 733
SWIDTH 333 0
DWIDTH 6 0
BBX 7 3 1 10
BITMAP
36
6C
90
ENDCHAR
STARTCHAR uni02EE
ENCODING 750
SWIDTH 556 0
DWIDTH 10 0
BBX 6 4 3 9
BITMAP
CC
CC
44
88
ENDCHAR
STARTCHAR uni037E
ENCODING 894
SWIDTH 333 0
DWIDTH 6 0
BBX 5 10 1 -2
BITMAP
18
18
00
00
00
00
60
60
60
C0
ENDCHAR
STARTCHAR tonos
ENCODING 900
SWIDTH 333 0
DWIDTH 6 0
BBX 4 3 3 10
BITMAP
30
60
80
ENDCHAR
STARTCHAR dieresistonos
ENCODING 901
SWIDTH 333 0
DWIDTH 6 0
BBX 6 6 2 10
BITMAP
0C
18
20
00
D8
D8
ENDCHAR
STARTCHAR anoteleia
ENCODING 903
SWIDTH 250 0
DWIDTH 5 0
BBX 2 2 2 4
BITMAP
C0
C0
ENDCHAR
STARTCHAR mu
ENCODING 956
SWIDTH 500 0
DWIDTH 9 0
BBX 10 13 -1 -4
BITMAP
38C0
18C0
18C0
18C0
3180
3180
3380
3DC0
7980
4000
C000
E000
4000
ENDCHAR
STARTCHAR uni1E00
ENCODING 7680
SWIDTH 611 0
DWIDTH 11 0
BBX 11 18 0 -5
BITMAP
00C0
01C0
01C0
02C0
06C0
04C0
0CC0
08C0
1FC0
30C0
20C0
60C0
F1E0
0000
0600
0900
0900
0600
ENDCHAR
STARTCHAR uni1E01
ENCODING 7681
SWIDTH 500 0
DWIDTH 10 0
BBX 9 14 1 -5
BITMAP
1E80
6700
4300
C300
C600
C600
C600
EE80
3300
0000
1800
2400
2400
1800
ENDCHAR
STARTCHAR uni1E02
ENCODING 7682
SWIDTH 611 0
DWIDTH 12 0
BBX 11 16 1 0
BITMAP
0600
0600
0000
3F80
18E0
1860
1860
3060
31C0
3F00
3180
60C0
60C0
61C0
6380
FE00
ENDCHAR
STARTCHAR uni1E03
ENCODING 7683
SWIDTH 500 0
DWIDTH 9 0
BBX 9 17 0 0
BITMAP
1800
1800
0000
3800
1800
1800
1000
3000
3700
3980
3180
3180
6180
6180
6300
6200
BC00
ENDCHAR
STARTCHAR uni1E04
ENCODING 7684
SWIDTH 611 0
DWIDTH 12 0
BBX 11 16 1 -3
BITMAP
3F80
18E0
1860
1860
3060
31C0
3F00
3180
60C0
60C0
61C0
6380
FE00
0000
0C00
0C00
ENDCHAR
STARTCHAR uni1E05
ENCODING 7685
SWIDTH 500 0
DWIDTH 9 0
BBX 9 17 0 -3
BITMAP
3800
1800
1800
1000
3000
3700
3980
3180
3180
6180
6180
6300
6200
BC00
0000
1800
1800
ENDCHAR
STARTCHAR uni1E06
ENCODING 7686
SWIDTH 611 0
DWIDTH 12 0
BBX 11 15 1 -2
BITMAP
3F80
18E0
1860
1860
3060
31C0
3F00
3180
60C0
60C0
61C0
6380
FE00
0000
1E00
ENDCHAR
STARTCHAR uni1E07
ENCODING 7687
SWIDTH 500 0
DWIDTH 9 0
BBX 9 16 0 -2
BITMAP
3800
1800
1800
1000
3000
3700
3980
3180
3180
6180
6180
6300
6200
BC00
0000
3C00
ENDCHAR
STARTCHAR uni1E08
ENCODING 7688
SWIDTH 667 0
DWIDTH 12 0
BBX 12 21 2 -4
BITMAP
0180
0300
0400
0000
03D0
0C70
3820
3020
6000
6000
E000
C000
C000
C000
4040
6180
3E00
0800
0C00
2C00
1800
ENDCHAR
STARTCHAR uni1E09
ENCODING 7689
SWIDTH 444 0
DWIDTH 8 0
BBX 7 17 1 -4
BITMAP
0C
18
20
00
1E
72
40
C0
C0
C0
C0
E4
78
20
30
B0
60
ENDCHAR
STARTCHAR uni1E0A
ENCODING 7690
SWIDTH 722 0
DWIDTH 14 0
BBX 13 16 1 0
BITMAP
0300
0300
0000
3FC0
1870
1838
1818
3018
3018
3038
3030
6070
6060
60C0
6380
FE00
ENDCHAR
STARTCHAR uni1E0B
ENCODING 7691
SWIDTH 500 0
DWIDTH 10 0
BBX 9 17 1 0
BITMAP
0300
0300
0000
0380
0180
0180
0180
0100
1D00
6700
4300
C200
C600
C600
C600
EE80
3300
ENDCHAR
STARTCHAR uni1E0C
ENCODING 7692
SWIDTH 722 0
DWIDTH 14 0
BBX 13 16 1 -3
BITMAP
3FC0
1870
1838
1818
3018
3018
3038
3030
6070
6060
60C0
6380
FE00
0000
0C00
0C00
ENDCHAR
STARTCHAR uni1E0D
ENCODING 7693
SWIDTH 500 0
DWIDTH 10 0
BBX 9 17 1 -3
BITMAP
0380
0180
0180
0180
0100
1D00
6700
4300
C200
C600
C600
C600
EE80
3300
0000
1800
1800
ENDCHAR
STARTCHAR uni1E0E
ENCODING 7694
SWIDTH 722 0
DWIDTH 14 0
BBX 13 15 1 -2
BITMAP
3FC0
1870
1838
1818
3018
3018
3038
3030
6070
6060
60C0
6380
FE00
0000
1E00
ENDCHAR
STARTCHAR uni1E0F
ENCODING 7695
SWIDTH 500 0
DWIDTH 10 0
BBX 9 16 1 -2
BITMAP
0380
0180
0180
0180
0100
1D00
6700
4300
C200
C600
C600
C600
EE80
3300
0000
3C00
ENDCHAR
STARTCHAR uni1E10
ENCODING 7696
SWIDTH 722 0
DWIDTH 14 0
BBX 13 17 1 -4
BITMAP
3FC0
1870
1838
1818
3018
3018
3038
3030
6070
6060
60C0
6380
FE00
0400
0600
1600
0C00
ENDCHAR
STARTCHAR uni1E11
ENCODING 7697
SWIDTH 500 0
DWIDTH 10 0
BBX 9 18 1 -4
BITMAP
0380
0180
0180
0180
0100
1D00
6700
4300
C200
C600
C600
C600
EE80
3300
0800
0C00
2C00
1800
ENDCHAR
STARTCHAR uni1E12
ENCODING 7698
SWIDTH 722 0
DWIDTH 14 0
BBX 13 17 1 -4
BITMAP
3FC0
1870
1838
1818
3018
3018
3038
3030
6070
6060
60C0
6380
FE00
0000
0600
1B00
3100
ENDCHAR
STARTCHAR uni1E13
ENCODING 7699
SWIDTH 500 0
DWIDTH 10 0
BBX 9 18 1 -4
BITMAP
0380
0180
0180
0180
0100
1D00
6700
4300
C200
C600
C600
C600
EE80
3300
0000
0C00
3600
6200
ENDCHAR
STARTCHAR uni1E14
ENCODING 7700
SWIDTH 611 0
DWIDTH 11 0
BBX 10 19 1 0
BITMAP
1800
0C00
0200
0000
0F00
0000
3FC0
18C0
1840
1840
3100
3100
3E00
3200
6200
6040
6040
6180
FF80
ENDCHAR
STARTCHAR uni1E15
ENCODING 7701
SWIDTH 444 0
DWIDTH 8 0
BBX 7 15 1 0
BITMAP
60
30
08
00
3C
00
1C
66
46
CC
F8
E0
C2
E4
78
ENDCHAR
STARTCHAR uni1E16
ENCODING 7702
SWIDTH 611 0
DWIDTH 11 0
BBX 10 19 1 0
BITMAP
0180
0300
0400
0000
0F00
0000
3FC0
18C0
1840
1840
3100
3100
3E00
3200
6200
6040
6040
6180
FF80
ENDCHAR
STARTCHAR uni1E17
ENCODING 7703
SWIDTH 444 0
DWIDTH 8 0
BBX 7 15 1 0
BITMAP
06
0C
10
00
3C
00
1C
66
46
CC
F8
E0
C2
E4
78
ENDCHAR
STARTCHAR uni1E18
ENCODING 7704
SWIDTH 611 0
DWIDTH 11 0
BBX 10 17 1 -4
BITMAP
3FC0
18C0
1840
1840
3100
3100
3E00
3200
6200
6040
6040
6180
FF80
0000
0C00
3600
6200
ENDCHAR
STARTCHAR uni1E19
ENCODING 7705
SWIDTH 444 0
DWIDTH 8 0
BBX 8 13 0 -4
BITMAP
0E
33
23
66
7C
70
61
72
3C
00
18
6C
C4
ENDCHAR
STARTCHAR uni1E1A
ENCODING 7706
SWIDTH 611 0
DWIDTH 11 0
BBX 10 17 1 -4
BITMAP
3FC0
18C0
1840
1840
3100
3100
3E00
3200
6200
6040
6040
6180
FF80
0000
1900
3F00
2600
ENDCHAR
STARTCHAR uni1E1B
ENCODING 7707
SWIDTH 444 0
DWIDTH 8 0
BBX 7 13 1 -4
BITMAP
1C
66
46
CC
F8
E0
C2
E4
78
00
64
FC
98
ENDCHAR
STARTCHAR uni1E1C
ENCODING 7708
SWIDTH 611 0
DWIDTH 11 0
BBX 10 21 1 -4
BITMAP
1080
1900
0E00
0000
3FC0
18C0
1840
1840
3100
3100
3E00
3200
6200
6040
6040
6180
FF80
0800
0C00
2C00
1800
ENDCHAR
STARTCHAR uni1E1D
ENCODING 7709
SWIDTH 444 0
DWIDTH 8 0
BBX 7 17 1 -4
BITMAP
42
64
38
00
1C
66
46
CC
F8
E0
C2
E4
78
20
30
B0
60
ENDCHAR
STARTCHAR uni1E1E
ENCODING 7710
SWIDTH 611 0
DWIDTH 11 0
BBX 11 16 1 0
BITMAP
0600
0600
0000
3FE0
1860
1820
1820
3080
3080
3F00
3100
6100
6000
6000
6000
F000
ENDCHAR
STARTCHAR uni1E1F
ENCODING 7711
SWIDTH 278 0
DWIDTH 5 0
BBX 9 21 -1 -4
BITMAP
0C00
0C00
0000
0700
0D80
0C00
1800
1800
7E00
1800
1800
1800
1800
3000
3000
3000
3000
2000
2000
E000
C000
ENDCHAR
STARTCHAR uni1E20
ENCODING 7712
SWIDTH 722 0
DWIDTH 14 0
BBX 12 15 2 0
BITMAP
0780
0000
03D0
0C70
3820
3020
6000
6000
E000
C1F0
C0C0
C0C0
4180
6180
3F00
ENDCHAR
STARTCHAR uni1E21
ENCODING 7713
SWIDTH 500 0
DWIDTH 8 0
BBX 10 15 -1 -4
BITMAP
0F00
0000
0FC0
1B00
3180
3180
3300
3B00
1E00
1000
3F00
6380
C180
E300
7C00
ENDCHAR
STARTCHAR uni1E22
ENCODING 7714
SWIDTH 722 0
DWIDTH 13 0
BBX 13 16 1 0
BITMAP
0300
0300
0000
3C78
1830
1830
1830
3060
3060
3FE0
3060
60C0
60C0
60C0
60C0
F1E0
ENDCHAR
STARTCHAR uni1E23
ENCODING 7715
SWIDTH 500 0
DWIDTH 10 0
BBX 9 17 1 0
BITMAP
3000
3000
0000
7000
3000
3000
2000
6000
6600
6F00
7300
6300
C600
C600
C600
C680
C700
ENDCHAR
STARTCHAR uni1E24
ENCODING 7716
SWIDTH 722 0
DWIDTH 13 0
BBX 13 16 1 -3
BITMAP
3C78
1830
1830
1830
3060
3060
3FE0
3060
60C0
60C0
60C0
60C0
F1E0
0000
0600
0600
ENDCHAR
STARTCHAR uni1E25
ENCODING 7717
SWIDTH 500 0
DWIDTH 10 0
BBX 9 17 1 -3
BITMAP
7000
3000
3000
2000
6000
6600
6F00
7300
6300
C600
C600
C600
C680
C700
0000
1800
1800
ENDCHAR
STARTCHAR uni1E26
ENCODING 7718
SWIDTH 722 0
DWIDTH 13 0
BBX 13 16 1 0
BITMAP
06C0
06C0
0000
3C78
1830
1830
1830
3060
3060
3FE0
3060
60C0
60C0
60C0
60C0
F1E0
ENDCHAR
STARTCHAR uni1E27
ENCODING 7719
SWIDTH 500 0
DWIDTH 10 0
BBX 9 17 1 0
BITMAP
6C00
6C00
0000
7000
3000
3000
2000
6000
6600
6F00
7300
6300
C600
C600
C600
C680
C700
ENDCHAR
STARTCHAR uni1E28
ENCODING 7720
SWIDTH 722 0
DWIDTH 13 0
BBX 13 17 1 -4
BITMAP
3C78
1830
1830
1830
3060
3060
3FE0
3060
60C0
60C0
60C0
60C0
F1E0
0400
0600
1600
0C00
ENDCHAR
STARTCHAR uni1E29
ENCODING 7721
SWIDTH 500 0
DWIDTH 10 0
BBX 9 18 1 -4
BITMAP
7000
3000
3000
2000
6000
6600
6F00
7300
6300
C600
C600
C600
C680
C700
0800
0C00
2C00
1800
ENDCHAR
STARTCHAR uni1E2A
ENCODING 7722
SWIDTH 722 0
DWIDTH 13 0
BBX 13 17 1 -4
BITMAP
3C78
1830
1830
1830
3060
3060
3FE0
3060
60C0
60C0
60C0
60C0
F1E0
0000
1080
1900
0E00
ENDCHAR
STARTCHAR uni1E2B
ENCODING 7723
SWIDTH 500 0
DWIDTH 10 0
BBX 9 18 1 -4
BITMAP
7000
3000
3000
2000
6000
6600
6F00
7300
6300
C600
C600
C600
C680
C700
0000
4200
6400
3800
ENDCHAR
STARTCHAR uni1E2C
ENCODING 7724
SWIDTH 333 0
DWIDTH 6 0
BBX 7 17 0 -4
BITMAP
1E
0C
0C
0C
18
18
18
18
30
30
30
30
78
00
64
FC
98
ENDCHAR
STARTCHAR uni1E2D
ENCODING 7725
SWIDTH 278 0
DWIDTH 5 0
BBX 6 18 -1 -4
BITMAP
0C
0C
00
00
00
38
18
18
18
30
30
30
34
38
00
64
FC
98
ENDCHAR
STARTCHAR uni1E2E
ENCODING 7726
SWIDTH 333 0
DWIDTH 6 0
BBX 7 20 1 0
BITMAP
06
0C
10
00
36
36
00
3C
18
18
18
30
30
30
30
60
60
60
60
F0
ENDCHAR
STARTCHAR uni1E2F
ENCODING 7727
SWIDTH 278 0
DWIDTH 5 0
BBX 5 16 1 0
BITMAP
18
30
40
00
D8
D8
00
60
E0
60
60
C0
C0
C0
D0
E0
ENDCHAR
STARTCHAR uni1E30
ENCODING 7728
SWIDTH 667 0
DWIDTH 13 0
BBX 12 17 2 0
BITMAP
0180
0300
0400
0000
3CF0
1860
18C0
1980
3200
3400
3C00
3600
6300
6300
6180
61C0
F3E0
ENDCHAR
STARTCHAR uni1E31
ENCODING 7729
SWIDTH 444 0
DWIDTH 8 0
BBX 8 18 1 0
BITMAP
0C
18
20
00
70
30
30
20
60
67
66
68
70
E0
F0
D8
DE
CC
ENDCHAR
STARTCHAR uni1E32
ENCODING 7730
SWIDTH 667 0
DWIDTH 13 0
BBX 12 16 2 -3
BITMAP
3CF0
1860
18C0
1980
3200
3400
3C00
3600
6300
6300
6180
61C0
F3E0
0000
0600
0600
ENDCHAR
STARTCHAR uni1E33
ENCODING 7731
SWIDTH 444 0
DWIDTH 8 0
BBX 8 17 1 -3
BITMAP
70
30
30
20
60
67
66
68
70
E0
F0
D8
DE
CC
00
30
30
ENDCHAR
STARTCHAR uni1E34
ENCODING 7732
SWIDTH 667 0
DWIDTH 13 0
BBX 12 15 2 -2
BITMAP
3CF0
1860
18C0
1980
3200
3400
3C00
3600
6300
6300
6180
61C0
F3E0
0000
0F00
ENDCHAR
STARTCHAR uni1E35
ENCODING 7733
SWIDTH 444 0
DWIDTH 8 0
BBX 8 16 1 -2
BITMAP
70
30
30
20
60
67
66
68
70
E0
F0
D8
DE
CC
00
78
ENDCHAR
STARTCHAR uni1E36
ENCODING 7734
SWIDTH 556 0
DWIDTH 10 0
BBX 10 16 1 -3
BITMAP
3C00
1800
1800
1800
3000
3000
3000
3000
6000
6040
6040
6180
FF80
0000
0C00
0C00
ENDCHAR
STARTCHAR uni1E37
ENCODING 7735
SWIDTH 278 0
DWIDTH 5 0
BBX 4 17 1 -3
BITMAP
70
30
30
20
60
60
60
60
60
C0
C0
C0
D0
E0
00
60
60
ENDCHAR
STARTCHAR uni1E38
ENCODING 7736
SWIDTH 556 0
DWIDTH 10 0
BBX 10 18 1 -3
BITMAP
3C00
0000
3C00
1800
1800
1800
3000
3000
3000
3000
6000
6040
6040
6180
FF80
0000
0C00
0C00
ENDCHAR
STARTCHAR uni1E39
ENCODING 7737
SWIDTH 278 0
DWIDTH 5 0
BBX 4 19 1 -3
BITMAP
F0
00
70
30
30
20
60
60
60
60
60
C0
C0
C0
D0
E0
00
60
60
ENDCHAR
STARTCHAR uni1E3A
ENCODING 7738
SWIDTH 556 0
DWIDTH 10 0
BBX 10 15 1 -2
BITMAP
3C00
1800
1800
1800
3000
3000
3000
3000
6000
6040
6040
6180
FF80
0000
1E00
ENDCHAR
STARTCHAR uni1E3B
ENCODING 7739
SWIDTH 278 0
DWIDTH 5 0
BBX 4 16 1 -2
BITMAP
70
30
30
20
60
60
60
60
60
C0
C0
C0
D0
E0
00
F0
ENDCHAR
STARTCHAR uni1E3C
ENCODING 7740
SWIDTH 556 0
DWIDTH 10 0
BBX 10 17 1 -4
BITMAP
3C00
1800
1800
1800
3000
3000
3000
3000
6000
6040
6040
6180
FF80
0000
0C00
3600
6200
ENDCHAR
STARTCHAR uni1E3D
ENCODING 7741
SWIDTH 278 0
DWIDTH 5 0
BBX 6 18 -1 -4
BITMAP
1C
0C
0C
08
18
18
18
18
18
30
30
30
34
38
00
18
6C
C4
ENDCHAR
STARTCHAR uni1E3E
ENCODING 7742
SWIDTH 833 0
DWIDTH 16 0
BBX 16 17 1 0
BITMAP
0030
0060
0080
0000
3C0F
1C0E
1C1E
1C16
1624
366C
364C
26CC
268C
6718
4318
4218
E03C
ENDCHAR
STARTCHAR uni1E3F
ENCODING 7743
SWIDTH 722 0
DWIDTH 15 0
BBX 14 13 1 0
BITMAP
00C0
0180
0200
0000
E660
6EF8
7398
6318
6318
C630
C630
C634
C638
ENDCHAR
STARTCHAR uni1E40
ENCODING 7744
SWIDTH 833 0
DWIDTH 16 0
BBX 16 16 1 0
BITMAP
00C0
00C0
0000
3C0F
1C0E
1C1E
1C16
1624
366C
364C
26CC
268C
6718
4318
4218
E03C
ENDCHAR
STARTCHAR uni1E41
ENCODING 7745
SWIDTH 722 0
DWIDTH 15 0
BBX 14 12 1 0
BITMAP
0300
0300
0000
E660
6EF8
7398
6318
6318
C630
C630
C634
C638
ENDCHAR
STARTCHAR uni1E42
ENCODING 7746
SWIDTH 833 0
DWIDTH 16 0
BBX 16 16 1 -3
BITMAP
3C0F
1C0E
1C1E
1C16
1624
366C
364C
26CC
268C
6718
4318
4218
E03C
0000
0180
0180
ENDCHAR
STARTCHAR uni1E43
ENCODING 7747
SWIDTH 722 0
DWIDTH 15 0
BBX 14 12 1 -3
BITMAP
E660
6EF8
7398
6318
6318
C630
C630
C634
C638
0000
0300
0300
ENDCHAR
STARTCHAR uni1E44
ENCODING 7748
SWIDTH 667 0
DWIDTH 12 0
BBX 14 16 0 0
BITMAP
0300
0300
0000
3C3C
0C08
1E08
1618
1710
1310
3330
31B0
21A0
21E0
60E0
60C0
F040
ENDCHAR
STARTCHAR uni1E45
ENCODING 7749
SWIDTH 500 0
DWIDTH 10 0
BBX 9 12 1 0
BITMAP
1800
1800
0000
E600
6F00
7300
6300
6300
C600
C600
C680
C700
ENDCHAR
STARTCHAR uni1E46
ENCODING 7750
SWIDTH 667 0
DWIDTH 12 0
BBX 14 16 0 -3
BITMAP
3C3C
0C08
1E08
1618
1710
1310
3330
31B0
21A0
21E0
60E0
60C0
F040
0000
0600
0600
ENDCHAR
STARTCHAR uni1E47
ENCODING 7751
SWIDTH 500 0
DWIDTH 10 0
BBX 9 12 1 -3
BITMAP
E600
6F00
7300
6300
6300
C600
C600
C680
C700
0000
1800
1800
ENDCHAR
STARTCHAR uni1E48
ENCODING 7752
SWIDTH 667 0
DWIDTH 12 0
BBX 14 15 0 -2
BITMAP
3C3C
0C08
1E08
1618
1710
1310
3330
31B0
21A0
21E0
60E0
60C0
F040
0000
0F00
ENDCHAR
STARTCHAR uni1E49
ENCODING 7753
SWIDTH 500 0
DWIDTH 10 0
BBX 9 11 1 -2
BITMAP
E600
6F00
7300
6300
6300
C600
C600
C680
C700
0000
3C00
ENDCHAR
STARTCHAR uni1E4A
ENCODING 7754
SWIDTH 667 0
DWIDTH 12 0
BBX 14 17 0 -4
BITMAP
3C3C
0C08
1E08
1618
1710
1310
3330
31B0
21A0
21E0
60E0
60C0
F040
0000
0300
0D80
1880
ENDCHAR
STARTCHAR uni1E4B
ENCODING 7755
SWIDTH 500 0
DWIDTH 10 0
BBX 9 13 1 -4
BITMAP
E600
6F00
7300
6300
6300
C600
C600
C680
C700
0000
0C00
3600
6200
ENDCHAR
STARTCHAR uni1E4C
ENCODING 7756
SWIDTH 722 0
DWIDTH 14 0
BBX 12 21 2 0
BITMAP
0060
00C0
0100
0000
0190
03F0
0260
0000
03C0
0C60
3830
3030
7030
6030
E070
C060
C0E0
C0C0
41C0
6380
3E00
ENDCHAR
STARTCHAR uni1E4D
ENCODING 7757
SWIDTH 500 0
DWIDTH 9 0
BBX 8 17 1 0
BITMAP
03
06
08
00
19
3F
26
00
1E
67
43
C3
C3
C3
C2
E6
78
ENDCHAR
STARTCHAR uni1E4E
ENCODING 7758
SWIDTH 722 0
DWIDTH 14 0
BBX 12 20 2 0
BITMAP
06C0
06C0
0000
0190
03F0
0260
0000
03C0
0C60
3830
3030
7030
6030
E070
C060
C0E0
C0C0
41C0
6380
3E00
ENDCHAR
STARTCHAR uni1E4F
ENCODING 7759
SWIDTH 500 0
DWIDTH 9 0
BBX 8 16 1 0
BITMAP
36
36
00
19
3F
26
00
1E
67
43
C3
C3
C3
C2
E6
78
ENDCHAR
STARTCHAR uni1E50
ENCODING 7760
SWIDTH 722 0
DWIDTH 14 0
BBX 12 19 2 0
BITMAP
0C00
0600
0100
0000
0780
0000
03C0
0C60
3830
3030
7030
6030
E070
C060
C0E0
C0C0
41C0
6380
3E00
ENDCHAR
STARTCHAR uni1E51
ENCODING 7761
SWIDTH 500 0
DWIDTH 9 0
BBX 8 15 1 0
BITMAP
30
18
04
00
1E
00
1E
67
43
C3
C3
C3
C2
E6
78
ENDCHAR
STARTCHAR uni1E52
ENCODING 7762
SWIDTH 722 0
DWIDTH 14 0
BBX 12 19 2 0
BITMAP
00C0
0180
0200
0000
0780
0000
03C0
0C60
3830
3030
7030
6030
E070
C060
C0E0
C0C0
41C0
6380
3E00
ENDCHAR
STARTCHAR uni1E53
ENCODING 7763
SWIDTH 500 0
DWIDTH 9 0
BBX 8 15 1 0
BITMAP
03
06
08
00
1E
00
1E
67
43
C3
C3
C3
C2
E6
78
ENDCHAR
STARTCHAR uni1E54
ENCODING 7764
SWIDTH 611 0
DWIDTH 11 0
BBX 11 17 1 0
BITMAP
0180
0300
0400
0000
3FC0
18E0
1860
1860
30E0
31C0
3F00
3000
6000
6000
6000
6000
F000
ENDCHAR
STARTCHAR uni1E55
ENCODING 7765
SWIDTH 500 0
DWIDTH 9 0
BBX 10 17 -1 -4
BITMAP
0180
0300
0400
0000
3B80
1CC0
18C0
18C0
30C0
30C0
3180
3100
3E00
6000
6000
6000
F000
ENDCHAR
STARTCHAR uni1E56
ENCODING 7766
SWIDTH 611 0
DWIDTH 11 0
BBX 11 16 1 0
BITMAP
0600
0600
0000
3FC0
18E0
1860
1860
30E0
31C0
3F00
3000
6000
6000
6000
6000
F000
ENDCHAR
STARTCHAR uni1E57
ENCODING 7767
SWIDTH 500 0
DWIDTH 9 0
BBX 10 16 -1 -4
BITMAP
0600
0600
0000
3B80
1CC0
18C0
18C0
30C0
30C0
3180
3100
3E00
6000
6000
6000
F000
ENDCHAR
STARTCHAR uni1E58
ENCODING 7768
SWIDTH 611 0
DWIDTH 12 0
BBX 11 16 1 0
BITMAP
0600
0600
0000
3FC0
18E0
1860
1860
30E0
31C0
3F00
3600
6300
6380
6180
61C0
F0E0
ENDCHAR
STARTCHAR uni1E59
ENCODING 7769
SWIDTH 389 0
DWIDTH 6 0
BBX 6 12 1 0
BITMAP
30
30
00
EC
6C
70
60
60
C0
C0
C0
C0
ENDCHAR
STARTCHAR uni1E5A
ENCODING 7770
SWIDTH 611 0
DWIDTH 12 0
BBX 11 16 1 -3
BITMAP
3FC0
18E0
1860
1860
30E0
31C0
3F00
3600
6300
6380
6180
61C0
F0E0
0000
0C00
0C00
ENDCHAR
STARTCHAR uni1E5B
ENCODING 7771
SWIDTH 389 0
DWIDTH 6 0
BBX 6 12 1 -3
BITMAP
EC
6C
70
60
60
C0
C0
C0
C0
00
60
60
ENDCHAR
STARTCHAR uni1E5C
ENCODING 7772
SWIDTH 611 0
DWIDTH 12 0
BBX 11 18 1 -3
BITMAP
0F00
0000
3FC0
18E0
1860
1860
30E0
31C0
3F00
3600
6300
6380
6180
61C0
F0E0
0000
0C00
0C00
ENDCHAR
STARTCHAR uni1E5D
ENCODING 7773
SWIDTH 389 0
DWIDTH 6 0
BBX 6 14 1 -3
BITMAP
78
00
EC
6C
70
60
60
C0
C0
C0
C0
00
60
60
ENDCHAR
STARTCHAR uni1E5E
ENCODING 7774
SWIDTH 611 0
DWIDTH 12 0
BBX 11 15 1 -2
BITMAP
3FC0
18E0
1860
1860
30E0
31C0
3F00
3600
6300
6380
6180
61C0
F0E0
0000
1E00
ENDCHAR
STARTCHAR uni1E5F
ENCODING 7775
SWIDTH 389 0
DWIDTH 6 0
BBX 6 11 1 -2
BITMAP
EC
6C
70
60
60
C0
C0
C0
C0
00
F0
ENDCHAR
STARTCHAR uni1E60
ENCODING 7776
SWIDTH 500 0
DWIDTH 9 0
BBX 9 16 1 0
BITMAP
0C00
0C00
0000
0F80
1980
3080
3080
3800
1C00
0E00
0F00
0700
8300
8300
C600
FC00
ENDCHAR
STARTCHAR uni1E61
ENCODING 7777
SWIDTH 389 0
DWIDTH 8 0
BBX 7 12 1 0
BITMAP
18
18
00
3E
66
62
30
18
18
8C
CC
F8
ENDCHAR
STARTCHAR uni1E62
ENCODING 7778
SWIDTH 500 0
DWIDTH 9 0
BBX 9 16 1 -3
BITMAP
0F80
1980
3080
3080
3800
1C00
0E00
0F00
0700
8300
8300
C600
FC00
0000
1800
1800
ENDCHAR
STARTCHAR uni1E63
ENCODING 7779
SWIDTH 389 0
DWIDTH 8 0
BBX 7 12 1 -3
BITMAP
3E
66
62
30
18
18
8C
CC
F8
00
30
30
ENDCHAR
STARTCHAR uni1E64
ENCODING 7780
SWIDTH 500 0
DWIDTH 9 0
BBX 9 20 1 0
BITMAP
0600
0600
0000
0300
0600
0800
0000
0F80
1980
3080
3080
3800
1C00
0E00
0F00
0700
8300
8300
C600
FC00
ENDCHAR
STARTCHAR uni1E65
ENCODING 7781
SWIDTH 389 0
DWIDTH 8 0
BBX 7 16 1 0
BITMAP
0C
0C
00
06
0C
10
00
3E
66
62
30
18
18
8C
CC
F8
ENDCHAR
STARTCHAR uni1E66
ENCODING 7782
SWIDTH 500 0
DWIDTH 9 0
BBX 9 17 1 0
BITMAP
0600
0600
0000
0880
0500
0600
0000
0F80
1980
3080
3080
1800
0E00
8300
8300
C600
FC00
ENDCHAR
STARTCHAR uni1E67
ENCODING 7783
SWIDTH 389 0
DWIDTH 8 0
BBX 6 15 1 0
BITMAP
30
30
00
44
28
30
00
3C
64
60
30
18
8C
CC
F8
ENDCHAR
STARTCHAR uni1E68
ENCODING 7784
SWIDTH 500 0
DWIDTH 9 0
BBX 9 19 1 -3
BITMAP
0C00
0C00
0000
0F80
1980
3080
3080
3800
1C00
0E00
0F00
0700
8300
8300
C600
FC00
0000
1800
1800
ENDCHAR
STARTCHAR uni1E69
ENCODING 7785
SWIDTH 389 0
DWIDTH 8 0
BBX 7 15 1 -3
BITMAP
18
18
00
3E
66
62
30
18
18
8C
CC
F8
00
30
30
ENDCHAR
STARTCHAR uni1E6A
ENCODING 7786
SWIDTH 556 0
DWIDTH 10 0
BBX 11 16 1 0
BITMAP
0600
0600
0000
7FE0
C660
8620
0600
0C00
0C00
0C00
0C00
1800
1800
1800
1800
3C00
ENDCHAR
STARTCHAR uni1E6B
ENCODING 7787
SWIDTH 278 0
DWIDTH 5 0
BBX 5 14 1 0
BITMAP
30
30
00
10
30
F8
60
60
60
C0
C0
C0
D0
60
ENDCHAR
STARTCHAR uni1E6C
ENCODING 7788
SWIDTH 556 0
DWIDTH 10 0
BBX 11 16 1 -3
BITMAP
7FE0
C660
8620
0600
0C00
0C00
0C00
0C00
1800
1800
1800
1800
3C00
0000
0C00
0C00
ENDCHAR
STARTCHAR uni1E6D
ENCODING 7789
SWIDTH 278 0
DWIDTH 5 0
BBX 5 14 1 -3
BITMAP
10
30
F8
60
60
60
C0
C0
C0
D0
60
00
60
60
ENDCHAR
STARTCHAR uni1E6E
ENCODING 7790
SWIDTH 556 0
DWIDTH 10 0
BBX 11 15 1 -2
BITMAP
7FE0
C660
8620
0600
0C00
0C00
0C00
0C00
1800
1800
1800
1800
3C00
0000
1E00
ENDCHAR
STARTCHAR uni1E6F
ENCODING 7791
SWIDTH 278 0
DWIDTH 5 0
BBX 5 13 1 -2
BITMAP
10
30
F8
60
60
60
C0
C0
C0
D0
60
00
F0
ENDCHAR
STARTCHAR uni1E70
ENCODING 7792
SWIDTH 556 0
DWIDTH 10 0
BBX 11 17 1 -4
BITMAP
7FE0
C660
8620
0600
0C00
0C00
0C00
0C00
1800
1800
1800
1800
3C00
0000
0C00
3600
6200
ENDCHAR
STARTCHAR uni1E71
ENCODING 7793
SWIDTH 278 0
DWIDTH 5 0
BBX 7 15 -1 -4
BITMAP
04
0C
3E
18
18
18
30
30
30
34
18
00
18
6C
C4
ENDCHAR
STARTCHAR uni1E72
ENCODING 7794
SWIDTH 722 0
DWIDTH 14 0
BBX 13 16 2 -3
BITMAP
7C78
3030
3020
3020
6060
6040
6040
E0C0
C080
C180
C180
E300
7E00
0000
3600
3600
ENDCHAR
STARTCHAR uni1E73
ENCODING 7795
SWIDTH 500 0
DWIDTH 9 0
BBX 8 12 1 -3
BITMAP
E3
63
63
43
C6
C6
CE
F7
66
00
6C
6C
ENDCHAR
STARTCHAR uni1E74
ENCODING 7796
SWIDTH 722 0
DWIDTH 14 0
BBX 13 17 2 -4
BITMAP
7C78
3030
3020
3020
6060
6040
6040
E0C0
C080
C180
C180
E300
7E00
0000
1900
3F00
2600
ENDCHAR
STARTCHAR uni1E75
ENCODING 7797
SWIDTH 500 0
DWIDTH 9 0
BBX 8 13 1 -4
BITMAP
E3
63
63
43
C6
C6
CE
F7
66
00
32
7E
4C
ENDCHAR
STARTCHAR uni1E76
ENCODING 7798
SWIDTH 722 0
DWIDTH 14 0
BBX 13 17 2 -4
BITMAP
7C78
3030
3020
3020
6060
6040
6040
E0C0
C080
C180
C180
E300
7E00
0000
0C00
3600
6200
ENDCHAR
STARTCHAR uni1E77
ENCODING 7799
SWIDTH 500 0
DWIDTH 9 0
BBX 8 13 1 -4
BITMAP
E3
63
63
43
C6
C6
CE
F7
66
00
18
6C
C4
ENDCHAR
STARTCHAR uni1E78
ENCODING 7800
SWIDTH 722 0
DWIDTH 14 0
BBX 13 21 2 0
BITMAP
00C0
0180
0200
0000
0640
0FC0
0980
0000
7C78
3030
3020
3020
6060
6040
6040
E0C0
C080
C180
C180
E300
7E00
ENDCHAR
STARTCHAR uni1E79
ENCODING 7801
SWIDTH 500 0
DWIDTH 9 0
BBX 8 17 1 0
BITMAP
06
0C
10
00
32
7E
4C
00
E3
63
63
43
C6
C6
CE
F7
66
ENDCHAR
STARTCHAR uni1E7A
ENCODING 7802
SWIDTH 722 0
DWIDTH 14 0
BBX 13 18 2 0
BITMAP
0D80
0D80
0000
0F00
0000
7C78
3030
3020
3020
6060
6040
6040
E0C0
C080
C180
C180
E300
7E00
ENDCHAR
STARTCHAR uni1E7B
ENCODING 7803
SWIDTH 500 0
DWIDTH 9 0
BBX 8 14 1 0
BITMAP
6C
6C
00
3C
00
E3
63
63
43
C6
C6
CE
F7
66
ENDCHAR
STARTCHAR uni1E7C
ENCODING 7804
SWIDTH 611 0
DWIDTH 11 0
BBX 11 17 2 0
BITMAP
1900
3F00
2600
0000
F1E0
60C0
6080
6100
6200
6200
6400
6400
6800
7000
7000
6000
4000
ENDCHAR
STARTCHAR uni1E7D
ENCODING 7805
SWIDTH 444 0
DWIDTH 8 0
BBX 8 13 0 0
BITMAP
32
7E
4C
00
E3
63
62
66
34
34
38
38
30
ENDCHAR
STARTCHAR uni1E7E
ENCODING 7806
SWIDTH 611 0
DWIDTH 11 0
BBX 11 16 2 -3
BITMAP
F1E0
60C0
6080
6100
6200
6200
6400
6400
6800
7000
7000
6000
4000
0000
3000
3000
ENDCHAR
STARTCHAR uni1E7F
ENCODING 7807
SWIDTH 444 0
DWIDTH 8 0
BBX 8 12 0 -3
BITMAP
E3
63
62
66
34
34
38
38
30
00
18
18
ENDCHAR
STARTCHAR Wgrave
ENCODING 7808
SWIDTH 833 0
DWIDTH 15 0
BBX 15 17 2 0
BITMAP
0C00
0600
0100
0000
F3CE
6184
638C
6388
6598
6590
65A0
69A0
69C0
71C0
6180
6180
4100
ENDCHAR
STARTCHAR wgrave
ENCODING 7809
SWIDTH 667 0
DWIDTH 13 0
BBX 13 13 0 0
BITMAP
1800
0C00
0200
0000
E318
6318
6310
6330
35A0
35A0
39C0
3180
2100
ENDCHAR
STARTCHAR Wacute
ENCODING 7810
SWIDTH 833 0
DWIDTH 15 0
BBX 15 17 2 0
BITMAP
00C0
0180
0200
0000
F3CE
6184
638C
6388
6598
6590
65A0
69A0
69C0
71C0
6180
6180
4100
ENDCHAR
STARTCHAR wacute
ENCODING 7811
SWIDTH 667 0
DWIDTH 13 0
BBX 13 13 0 0
BITMAP
0180
0300
0400
0000
E318
6318
6310
6330
35A0
35A0
39C0
3180
2100
ENDCHAR
STARTCHAR Wdieresis
ENCODING 7812
SWIDTH 833 0
DWIDTH 15 0
BBX 15 16 2 0
BITMAP
06C0
06C0
0000
F3CE
6184
638C
6388
6598
6590
65A0
69A0
69C0
71C0
6180
6180
4100
ENDCHAR
STARTCHAR wdieresis
ENCODING 7813
SWIDTH 667 0
DWIDTH 13 0
BBX 13 12 0 0
BITMAP
0D80
0D80
0000
E318
6318
6310
6330
35A0
35A0
39C0
3180
2100
ENDCHAR
STARTCHAR uni1E86
ENCODING 7814
SWIDTH 833 0
DWIDTH 15 0
BBX 15 16 2 0
BITMAP
0300
0300
0000
F3CE
6184
638C
6388
6598
6590
65A0
69A0
69C0
71C0
6180
6180
4100
ENDCHAR
STARTCHAR uni1E87
ENCODING 7815
SWIDTH 667 0
DWIDTH 13 0
BBX 13 12 0 0
BITMAP
0600
0600
0000
E318
6318
6310
6330
35A0
35A0
39C0
3180
2100
ENDCHAR
STARTCHAR uni1E88
ENCODING 7816
SWIDTH 833 0
DWIDTH 15 0
BBX 15 16 2 -3
BITMAP
F3CE
6184
638C
6388
6598
6590
65A0
69A0
69C0
71C0
6180
6180
4100
0000
0600
0600
ENDCHAR
STARTCHAR uni1E89
ENCODING 7817
SWIDTH 667 0
DWIDTH 13 0
BBX 13 12 0 -3
BITMAP
E318
6318
6310
6330
35A0
35A0
39C0
3180
2100
0000
0600
0600
ENDCHAR
STARTCHAR uni1E8A
ENCODING 7818
SWIDTH 611 0
DWIDTH 11 0
BBX 14 16 -1 0
BITMAP
0300
0300
0000
3F7C
0C30
0E60
0640
0780
0300
0300
0780
0580
08C0
10C0
30E0
FBF0
ENDCHAR
STARTCHAR uni1E8B
ENCODING 7819
SWIDTH 444 0
DWIDTH 8 0
BBX 8 12 0 0
BITMAP
18
18
00
73
33
36
1C
38
38
6C
CF
C6
ENDCHAR
STARTCHAR uni1E8C
ENCODING 7820
SWIDTH 611 0
DWIDTH 11 0
BBX 14 16 -1 0
BITMAP
06C0
06C0
0000
3F7C
0C30
0E60
0640
0780
0300
0300
0780
0580
08C0
10C0
30E0
FBF0
ENDCHAR
STARTCHAR uni1E8D
ENCODING 7821
SWIDTH 444 0
DWIDTH 8 0
BBX 8 12 0 0
BITMAP
36
36
00
73
33
36
1C
38
38
6C
CF
C6
ENDCHAR
STARTCHAR uni1E8E
ENCODING 7822
SWIDTH 556 0
DWIDTH 11 0
BBX 11 16 2 0
BITMAP
0C00
0C00
0000
F9E0
60C0
7180
3300
3600
1C00
1800
1800
1800
3000
3000
3000
FC00
ENDCHAR
STARTCHAR uni1E8F
ENCODING 7823
SWIDTH 444 0
DWIDTH 8 0
BBX 9 16 -1 -4
BITMAP
0C00
0C00
0000
7180
3180
3100
3300
1A00
1A00
1C00
0C00
0800
1800
1000
B000
E000
ENDCHAR
STARTCHAR uni1E90
ENCODING 7824
SWIDTH 556 0
DWIDTH 10 0
BBX 12 17 0 0
BITMAP
0180
06C0
0C40
0000
3FF0
60E0
40C0
0180
0300
0600
0600
0C00
1800
3800
3020
7060
FFC0
ENDCHAR
STARTCHAR uni1E91
ENCODING 7825
SWIDTH 389 0
DWIDTH 7 0
BBX 7 13 0 0
BITMAP
0C
36
62
00
7E
46
0C
18
18
30
60
C4
FC
ENDCHAR
STARTCHAR uni1E92
ENCODING 7826
SWIDTH 556 0
DWIDTH 10 0
BBX 12 16 0 -3
BITMAP
3FF0
60E0
40C0
0180
0300
0600
0600
0C00
1800
3800
3020
7060
FFC0
0000
0C00
0C00
ENDCHAR
STARTCHAR uni1E93
ENCODING 7827
SWIDTH 389 0
DWIDTH 7 0
BBX 7 12 0 -3
BITMAP
7E
46
0C
18
18
30
60
C4
FC
00
30
30
ENDCHAR
STARTCHAR uni1E94
ENCODING 7828
SWIDTH 556 0
DWIDTH 10 0
BBX 12 15 0 -2
BITMAP
3FF0
60E0
40C0
0180
0300
0600
0600
0C00
1800
3800
3020
7060
FFC0
0000
1E00
ENDCHAR
STARTCHAR uni1E95
ENCODING 7829
SWIDTH 389 0
DWIDTH 7 0
BBX 7 11 0 -2
BITMAP
7E
46
0C
18
18
30
60
C4
FC
00
78
ENDCHAR
STARTCHAR uni1E96
ENCODING 7830
SWIDTH 500 0
DWIDTH 10 0
BBX 9 16 1 -2
BITMAP
7000
3000
3000
2000
6000
6600
6F00
7300
6300
C600
C600
C600
C680
C700
0000
3C00
ENDCHAR
STARTCHAR uni1E97
ENCODING 7831
SWIDTH 278 0
DWIDTH 5 0
BBX 5 14 1 0
BITMAP
D8
D8
00
10
30
F8
60
60
60
C0
C0
C0
D0
60
ENDCHAR
STARTCHAR uni1E98
ENCODING 7832
SWIDTH 667 0
DWIDTH 13 0
BBX 13 14 0 0
BITMAP
0600
0900
0900
0600
0000
E318
6318
6310
6330
35A0
35A0
39C0
3180
2100
ENDCHAR
STARTCHAR uni1E99
ENCODING 7833
SWIDTH 444 0
DWIDTH 8 0
BBX 9 18 -1 -4
BITMAP
0C00
1200
1200
0C00
0000
7180
3180
3100
3300
1A00
1A00
1C00
0C00
0800
1800
1000
B000
E000
ENDCHAR
STARTCHAR uni1EA0
ENCODING 7840
SWIDTH 611 0
DWIDTH 11 0
BBX 11 16 0 -3
BITMAP
00C0
01C0
01C0
02C0
06C0
04C0
0CC0
08C0
1FC0
30C0
20C0
60C0
F1E0
0000
0600
0600
ENDCHAR
STARTCHAR uni1EA1
ENCODING 7841
SWIDTH 500 0
DWIDTH 10 0
BBX 9 12 1 -3
BITMAP
1E80
6700
4300
C300
C600
C600
C600
EE80
3300
0000
1800
1800
ENDCHAR
STARTCHAR uni1EA4
ENCODING 7844
SWIDTH 611 0
DWIDTH 11 0
BBX 12 21 0 0
BITMAP
0060
00C0
0100
0000
0060
01B0
0310
0000
00C0
01C0
01C0
02C0
06C0
04C0
0CC0
08C0
1FC0
30C0
20C0
60C0
F1E0
ENDCHAR
STARTCHAR uni1EA5
ENCODING 7845
SWIDTH 500 0
DWIDTH 10 0
BBX 9 17 1 0
BITMAP
0180
0300
0400
0000
0300
0D80
1880
0000
1E80
6700
4300
C300
C600
C600
C600
EE80
3300
ENDCHAR
STARTCHAR uni1EA6
ENCODING 7846
SWIDTH 611 0
DWIDTH 11 0
BBX 12 21 0 0
BITMAP
0600
0300
0080
0000
0060
01B0
0310
0000
00C0
01C0
01C0
02C0
06C0
04C0
0CC0
08C0
1FC0
30C0
20C0
60C0
F1E0
ENDCHAR
STARTCHAR uni1EA7
ENCODING 7847
SWIDTH 500 0
DWIDTH 10 0
BBX 9 17 1 0
BITMAP
1800
0C00
0200
0000
0300
0D80
1880
0000
1E80
6700
4300
C300
C600
C600
C600
EE80
3300
ENDCHAR
STARTCHAR uni1EAA
ENCODING 7850
SWIDTH 611 0
DWIDTH 11 0
BBX 12 21 0 0
BITMAP
0320
07E0
04C0
0000
0060
01B0
0310
0000
00C0
01C0
01C0
02C0
06C0
04C0
0CC0
08C0
1FC0
30C0
20C0
60C0
F1E0
ENDCHAR
STARTCHAR uni1EAB
ENCODING 7851
SWIDTH 500 0
DWIDTH 10 0
BBX 9 17 1 0
BITMAP
0C80
1F80
1300
0000
0300
0D80
1880
0000
1E80
6700
4300
C300
C600
C600
C600
EE80
3300
ENDCHAR
STARTCHAR uni1EAC
ENCODING 7852
SWIDTH 611 0
DWIDTH 11 0
BBX 11 20 0 -3
BITMAP
00C0
0360
0620
0000
00C0
01C0
01C0
02C0
06C0
04C0
0CC0
08C0
1FC0
30C0
20C0
60C0
F1E0
0000
0600
0600
ENDCHAR
STARTCHAR uni1EAD
ENCODING 7853
SWIDTH 500 0
DWIDTH 10 0
BBX 9 16 1 -3
BITMAP
0600
1B00
3100
0000
1E80
6700
4300
C300
C600
C600
C600
EE80
3300
0000
1800
1800
ENDCHAR
STARTCHAR uni1EAE
ENCODING 7854
SWIDTH 611 0
DWIDTH 11 0
BBX 11 21 0 0
BITMAP
00C0
0180
0200
0000
0420
0640
0380
0000
00C0
01C0
01C0
02C0
06C0
04C0
0CC0
08C0
1FC0
30C0
20C0
60C0
F1E0
ENDCHAR
STARTCHAR uni1EAF
ENCODING 7855
SWIDTH 500 0
DWIDTH 10 0
BBX 9 17 1 0
BITMAP
0300
0600
0800
0000
2100
3200
1C00
0000
1E80
6700
4300
C300
C600
C600
C600
EE80
3300
ENDCHAR
STARTCHAR uni1EB0
ENCODING 7856
SWIDTH 611 0
DWIDTH 11 0
BBX 11 21 0 0
BITMAP
0C00
0600
0100
0000
0420
0640
0380
0000
00C0
01C0
01C0
02C0
06C0
04C0
0CC0
08C0
1FC0
30C0
20C0
60C0
F1E0
ENDCHAR
STARTCHAR uni1EB1
ENCODING 7857
SWIDTH 500 0
DWIDTH 10 0
BBX 9 17 1 0
BITMAP
3000
1800
0400
0000
2100
3200
1C00
0000
1E80
6700
4300
C300
C600
C600
C600
EE80
3300
ENDCHAR
STARTCHAR uni1EB4
ENCODING 7860
SWIDTH 611 0
DWIDTH 11 0
BBX 11 21 0 0
BITMAP
0640
0FC0
0980
0000
0420
0640
0380
0000
00C0
01C0
01C0
02C0
06C0
04C0
0CC0
08C0
1FC0
30C0
20C0
60C0
F1E0
ENDCHAR
STARTCHAR uni1EB5
ENCODING 7861
SWIDTH 500 0
DWIDTH 10 0
BBX 9 17 1 0
BITMAP
1900
3F00
2600
0000
2100
3200
1C00
0000
1E80
6700
4300
C300
C600
C600
C600
EE80
3300
ENDCHAR
STARTCHAR uni1EB6
ENCODING 7862
SWIDTH 611 0
DWIDTH 11 0
BBX 11 20 0 -3
BITMAP
0420
0640
0380
0000
00C0
01C0
01C0
02C0
06C0
04C0
0CC0
08C0
1FC0
30C0
20C0
60C0
F1E0
0000
0600
0600
ENDCHAR
STARTCHAR uni1EB7
ENCODING 7863
SWIDTH 500 0
DWIDTH 10 0
BBX 9 16 1 -3
BITMAP
2100
3200
1C00
0000
1E80
6700
4300
C300
C600
C600
C600
EE80
3300
0000
1800
1800
ENDCHAR
STARTCHAR uni1EB8
ENCODING 7864
SWIDTH 611 0
DWIDTH 11 0
BBX 10 16 1 -3
BITMAP
3FC0
18C0
1840
1840
3100
3100
3E00
3200
6200
6040
6040
6180
FF80
0000
0C00
0C00
ENDCHAR
STARTCHAR uni1EB9
ENCODING 7865
SWIDTH 444 0
DWIDTH 8 0
BBX 7 12 1 -3
BITMAP
1C
66
46
CC
F8
E0
C2
E4
78
00
30
30
ENDCHAR
STARTCHAR uni1EBC
ENCODING 7868
SWIDTH 611 0
DWIDTH 11 0
BBX 10 17 1 0
BITMAP
0C80
1F80
1300
0000
3FC0
18C0
1840
1840
3100
3100
3E00
3200
6200
6040
6040
6180
FF80
ENDCHAR
STARTCHAR uni1EBD
ENCODING 7869
SWIDTH 444 0
DWIDTH 8 0
BBX 7 13 1 0
BITMAP
32
7E
4C
00
1C
66
46
CC
F8
E0
C2
E4
78
ENDCHAR
STARTCHAR uni1EBE
ENCODING 7870
SWIDTH 611 0
DWIDTH 11 0
BBX 10 21 1 0
BITMAP
0180
0300
0400
0000
0180
06C0
0C40
0000
3FC0
18C0
1840
1840
3100
3100
3E00
3200
6200
6040
6040
6180
FF80
ENDCHAR
STARTCHAR uni1EBF
ENCODING 7871
SWIDTH 444 0
DWIDTH 8 0
BBX 7 17 1 0
BITMAP
06
0C
10
00
0C
36
62
00
1C
66
46
CC
F8
E0
C2
E4
78
ENDCHAR
STARTCHAR uni1EC0
ENCODING 7872
SWIDTH 611 0
DWIDTH 11 0
BBX 10 21 1 0
BITMAP
1800
0C00
0200
0000
0180
06C0
0C40
0000
3FC0
18C0
1840
1840
3100
3100
3E00
3200
6200
6040
6040
6180
FF80
ENDCHAR
STARTCHAR uni1EC1
ENCODING 7873
SWIDTH 444 0
DWIDTH 8 0
BBX 7 17 1 0
BITMAP
60
30
08
00
0C
36
62
00
1C
66
46
CC
F8
E0
C2
E4
78
ENDCHAR
STARTCHAR uni1EC4
ENCODING 7876
SWIDTH 611 0
DWIDTH 11 0
BBX 10 21 1 0
BITMAP
0C80
1F80
1300
0000
0180
06C0
0C40
0000
3FC0
18C0
1840
1840
3100
3100
3E00
3200
6200
6040
6040
6180
FF80
ENDCHAR
STARTCHAR uni1EC5
ENCODING 7877
SWIDTH 444 0
DWIDTH 8 0
BBX 7 17 1 0
BITMAP
32
7E
4C
00
0C
36
62
00
1C
66
46
CC
F8
E0
C2
E4
78
ENDCHAR
STARTCHAR uni1EC6
ENCODING 7878
SWIDTH 611 0
DWIDTH 11 0
BBX 10 20 1 -3
BITMAP
0300
0D80
1880
0000
3FC0
18C0
1840
1840
3100
3100
3E00
3200
6200
6040
6040
6180
FF80
0000
0C00
0C00
ENDCHAR
STARTCHAR uni1EC7
ENCODING 7879
SWIDTH 444 0
DWIDTH 8 0
BBX 7 16 1 -3
BITMAP
0C
36
62
00
1C
66
46
CC
F8
E0
C2
E4
78
00
30
30
ENDCHAR
STARTCHAR uni1ECA
ENCODING 7882
SWIDTH 333 0
DWIDTH 6 0
BBX 6 16 1 -3
BITMAP
3C
18
18
18
30
30
30
30
60
60
60
60
F0
00
60
60
ENDCHAR
STARTCHAR uni1ECB
ENCODING 7883
SWIDTH 278 0
DWIDTH 5 0
BBX 4 17 1 -3
BITMAP
30
30
00
00
00
E0
60
60
60
C0
C0
C0
D0
E0
00
60
60
ENDCHAR
STARTCHAR uni1ECC
ENCODING 7884
SWIDTH 722 0
DWIDTH 14 0
BBX 12 16 2 -3
BITMAP
03C0
0C60
3830
3030
7030
6030
E070
C060
C0E0
C0C0
41C0
6380
3E00
0000
0600
0600
ENDCHAR
STARTCHAR uni1ECD
ENCODING 7885
SWIDTH 500 0
DWIDTH 9 0
BBX 8 12 1 -3
BITMAP
1E
67
43
C3
C3
C3
C2
E6
78
00
30
30
ENDCHAR
STARTCHAR uni1ED0
ENCODING 7888
SWIDTH 722 0
DWIDTH 14 0
BBX 12 21 2 0
BITMAP
00C0
0180
0200
0000
00C0
0360
0620
0000
03C0
0C60
3830
3030
7030
6030
E070
C060
C0E0
C0C0
41C0
6380
3E00
ENDCHAR
STARTCHAR uni1ED1
ENCODING 7889
SWIDTH 500 0
DWIDTH 9 0
BBX 8 17 1 0
BITMAP
03
06
08
00
06
1B
31
00
1E
67
43
C3
C3
C3
C2
E6
78
ENDCHAR
STARTCHAR uni1ED2
ENCODING 7890
SWIDTH 722 0
DWIDTH 14 0
BBX 12 21 2 0
BITMAP
0C00
0600
0100
0000
00C0
0360
0620
0000
03C0
0C60
3830
3030
7030
6030
E070
C060
C0E0
C0C0
41C0
6380
3E00
ENDCHAR
STARTCHAR uni1ED3
ENCODING 7891
SWIDTH 500 0
DWIDTH 9 0
BBX 8 17 1 0
BITMAP
30
18
04
00
06
1B
31
00
1E
67
43
C3
C3
C3
C2
E6
78
ENDCHAR
STARTCHAR uni1ED6
ENCODING 7894
SWIDTH 722 0
DWIDTH 14 0
BBX 12 21 2 0
BITMAP
0320
07E0
04C0
0000
00C0
0360
0620
0000
03C0
0C60
3830
3030
7030
6030
E070
C060
C0E0
C0C0
41C0
6380
3E00
ENDCHAR
STARTCHAR uni1ED7
ENCODING 7895
SWIDTH 500 0
DWIDTH 9 0
BBX 8 17 1 0
BITMAP
19
3F
26
00
06
1B
31
00
1E
67
43
C3
C3
C3
C2
E6
78
ENDCHAR
STARTCHAR uni1ED8
ENCODING 7896
SWIDTH 722 0
DWIDTH 14 0
BBX 12 20 2 -3
BITMAP
0180
06C0
0C40
0000
03C0
0C60
3830
3030
7030
6030
E070
C060
C0E0
C0C0
41C0
6380
3E00
0000
0600
0600
ENDCHAR
STARTCHAR uni1ED9
ENCODING 7897
SWIDTH 500 0
DWIDTH 9 0
BBX 8 16 1 -3
BITMAP
06
1B
31
00
1E
67
43
C3
C3
C3
C2
E6
78
00
30
30
ENDCHAR
STARTCHAR uni1EDA
ENCODING 7898
SWIDTH 722 0
DWIDTH 14 0
BBX 13 17 2 0
BITMAP
0060
00C0
0100
0000
03D8
0C78
3838
3030
7030
6030
E070
C060
C0E0
C0C0
41C0
6380
3E00
ENDCHAR
STARTCHAR uni1EDB
ENCODING 7899
SWIDTH 500 0
DWIDTH 9 0
BBX 10 13 1 0
BITMAP
0180
0300
0400
0000
1EC0
67C0
4340
C380
C300
C300
C200
E600
7800
ENDCHAR
STARTCHAR uni1EDC
ENCODING 7900
SWIDTH 722 0
DWIDTH 14 0
BBX 13 17 2 0
BITMAP
0600
0300
0080
0000
03D8
0C78
3838
3030
7030
6030
E070
C060
C0E0
C0C0
41C0
6380
3E00
ENDCHAR
STARTCHAR uni1EDD
ENCODING 7901
SWIDTH 500 0
DWIDTH 9 0
BBX 10 13 1 0
BITMAP
1800
0C00
0200
0000
1EC0
67C0
4340
C380
C300
C300
C200
E600
7800
ENDCHAR
STARTCHAR uni1EE0
ENCODING 7904
SWIDTH 722 0
DWIDTH 14 0
BBX 13 17 2 0
BITMAP
0320
07E0
04C0
0000
03D8
0C78
3838
3030
7030
6030
E070
C060
C0E0
C0C0
41C0
6380
3E00
ENDCHAR
STARTCHAR uni1EE1
ENCODING 7905
SWIDTH 500 0
DWIDTH 9 0
BBX 10 13 1 0
BITMAP
0C80
1F80
1300
0000
1EC0
67C0
4340
C380
C300
C300
C200
E600
7800
ENDCHAR
STARTCHAR uni1EE2
ENCODING 7906
SWIDTH 722 0
DWIDTH 14 0
BBX 13 16 2 -3
BITMAP
03D8
0C78
3838
3030
7030
6030
E070
C060
C0E0
C0C0
41C0
6380
3E00
0000
0600
0600
ENDCHAR
STARTCHAR uni1EE3
ENCODING 7907
SWIDTH 500 0
DWIDTH 9 0
BBX 10 12 1 -3
BITMAP
1EC0
67C0
4340
C380
C300
C300
C200
E600
7800
0000
1800
1800
ENDCHAR
STARTCHAR uni1EE4
ENCODING 7908
SWIDTH 722 0
DWIDTH 14 0
BBX 13 16 2 -3
BITMAP
7C78
3030
3020
3020
6060
6040
6040
E0C0
C080
C180
C180
E300
7E00
0000
0C00
0C00
ENDCHAR
STARTCHAR uni1EE5
ENCODING 7909
SWIDTH 500 0
DWIDTH 9 0
BBX 8 12 1 -3
BITMAP
E3
63
63
43
C6
C6
CE
F7
66
00
18
18
ENDCHAR
STARTCHAR uni1EE8
ENCODING 7912
SWIDTH 722 0
DWIDTH 14 0
BBX 14 17 2 0
BITMAP
0060
00C0
0100
0000
7C7C
303C
3024
3028
6060
6040
6040
E0C0
C080
C180
C180
E300
7E00
ENDCHAR
STARTCHAR uni1EE9
ENCODING 7913
SWIDTH 500 0
DWIDTH 9 0
BBX 10 13 1 0
BITMAP
0300
0600
0800
0000
E3C0
63C0
6340
4380
C600
C600
CE00
F700
6600
ENDCHAR
STARTCHAR uni1EEA
ENCODING 7914
SWIDTH 722 0
DWIDTH 14 0
BBX 14 17 2 0
BITMAP
0600
0300
0080
0000
7C7C
303C
3024
3028
6060
6040
6040
E0C0
C080
C180
C180
E300
7E00
ENDCHAR
STARTCHAR uni1EEB
ENCODING 7915
SWIDTH 500 0
DWIDTH 9 0
BBX 10 13 1 0
BITMAP
3000
1800
0400
0000
E3C0
63C0
6340
4380
C600
C600
CE00
F700
6600
ENDCHAR
STARTCHAR uni1EEE
ENCODING 7918
SWIDTH 722 0
DWIDTH 14 0
BBX 14 17 2 0
BITMAP
0320
07E0
04C0
0000
7C7C
303C
3024
3028
6060
6040
6040
E0C0
C080
C180
C180
E300
7E00
ENDCHAR
STARTCHAR uni1EEF
ENCODING 7919
SWIDTH 500 0
DWIDTH 9 0
BBX 10 13 1 0
BITMAP
1900
3F00
2600
0000
E3C0
63C0
6340
4380
C600
C600
CE00
F700
6600
ENDCHAR
STARTCHAR uni1EF0
ENCODING 7920
SWIDTH 722 0
DWIDTH 14 0
BBX 14 16 2 -3
BITMAP
7C7C
303C
3024
3028
6060
6040
6040
E0C0
C080
C180
C180
E300
7E00
0000
0C00
0C00
ENDCHAR
STARTCHAR uni1EF1
ENCODING 7921
SWIDTH 500 0
DWIDTH 9 0
BBX 10 12 1 -3
BITMAP
E3C0
63C0
6340
4380
C600
C600
CE00
F700
6600
0000
1800
1800
ENDCHAR
STARTCHAR Ygrave
ENCODING 7922
SWIDTH 556 0
DWIDTH 11 0
BBX 11 17 2 0
BITMAP
3000
1800
0400
0000
F9E0
60C0
7180
3300
3600
1C00
1800
1800
1800
3000
3000
3000
FC00
ENDCHAR
STARTCHAR ygrave
ENCODING 7923
SWIDTH 444 0
DWIDTH 8 0
BBX 9 17 -1 -4
BITMAP
3000
1800
0400
0000
7180
3180
3100
3300
1A00
1A00
1C00
0C00
0800
1800
1000
B000
E000
ENDCHAR
STARTCHAR uni1EF4
ENCODING 7924
SWIDTH 556 0
DWIDTH 11 0
BBX 11 16 2 -3
BITMAP
F9E0
60C0
7180
3300
3600
1C00
1800
1800
1800
3000
3000
3000
FC00
0000
1800
1800
ENDCHAR
STARTCHAR uni1EF5
ENCODING 7925
SWIDTH 444 0
DWIDTH 8 0
BBX 9 16 -1 -7
BITMAP
7180
3180
3100
3300
1A00
1A00
1C00
0C00
0800
1800
1000
B000
E000
0000
3000
3000
ENDCHAR
STARTCHAR uni1EF8
ENCODING 7928
SWIDTH 556 0
DWIDTH 11 0
BBX 11 17 2 0
BITMAP
1900
3F00
2600
0000
F9E0
60C0
7180
3300
3600
1C00
1800
1800
1800
3000
3000
3000
FC00
ENDCHAR
STARTCHAR uni1EF9
ENCODING 7929
SWIDTH 444 0
DWIDTH 8 0
BBX 9 17 -1 -4
BITMAP
1900
3F00
2600
0000
7180
3180
3100
3300
1A00
1A00
1C00
0C00
0800
1800
1000
B000
E000
ENDCHAR
STARTCHAR uni2000
ENCODING 8192
SWIDTH 500 0
DWIDTH 10 0
BBX 1 1 0 0
BITMAP
00
ENDCHAR
STARTCHAR uni2001
ENCODING 8193
SWIDTH 1000 0
DWIDTH 19 0
BBX 1 1 0 0
BITMAP
00
ENDCHAR
STARTCHAR uni2002
ENCODING 8194
SWIDTH 500 0
DWIDTH 10 0
BBX 1 1 0 0
BITMAP
00
ENDCHAR
STARTCHAR uni2003
ENCODING 8195
SWIDTH 1000 0
DWIDTH 19 0
BBX 1 1 0 0
BITMAP
00
ENDCHAR
STARTCHAR uni2004
ENCODING 8196
SWIDTH 333 0
DWIDTH 6 0
BBX 1 1 0 0
BITMAP
00
ENDCHAR
STARTCHAR uni2005
ENCODING 8197
SWIDTH 250 0
DWIDTH 5 0
BBX 1 1 0 0
BITMAP
00
ENDCHAR
STARTCHAR uni2006
ENCODING 8198
SWIDTH 167 0
DWIDTH 3 0
BBX 1 1 0 0
BITMAP
00
ENDCHAR
STARTCHAR uni2007
ENCODING 8199
SWIDTH 500 0
DWIDTH 9 0
BBX 1 1 0 0
BITMAP
00
ENDCHAR
STARTCHAR uni2008
ENCODING 8200
SWIDTH 250 0
DWIDTH 4 0
BBX 1 1 0 0
BITMAP
00
ENDCHAR
STARTCHAR uni2009
ENCODING 8201
SWIDTH 200 0
DWIDTH 4 0
BBX 1 1 0 0
BITMAP
00
ENDCHAR
STARTCHAR uni200A
ENCODING 8202
SWIDTH 100 0
DWIDTH 2 0
BBX 1 1 0 0
BITMAP
00
ENDCHAR
STARTCHAR uni200B
ENCODING 8203
SWIDTH 0 0
DWIDTH 0 0
BBX 1 1 0 0
BITMAP
00
ENDCHAR
STARTCHAR uni2010
ENCODING 8208
SWIDTH 333 0
DWIDTH 6 0
BBX 4 2 1 4
BITMAP
F0
F0
ENDCHAR
STARTCHAR uni2011
ENCODING 8209
SWIDTH 333 0
DWIDTH 6 0
BBX 4 2 1 4
BITMAP
F0
F0
ENDCHAR
STARTCHAR figuredash
ENCODING 8210
SWIDTH 500 0
DWIDTH 9 0
BBX 10 1 0 4
BITMAP
FFC0
ENDCHAR
STARTCHAR endash
ENCODING 8211
SWIDTH 500 0
DWIDTH 9 0
BBX 10 1 0 4
BITMAP
FFC0
ENDCHAR
STARTCHAR emdash
ENCODING 8212
SWIDTH 889 0
DWIDTH 17 0
BBX 19 1 -1 4
BITMAP
FFFFE0
ENDCHAR
STARTCHAR afii00208
ENCODING 8213
SWIDTH 889 0
DWIDTH 17 0
BBX 19 1 -1 4
BITMAP
FFFFE0
ENDCHAR
STARTCHAR quoteleft
ENCODING 8216
SWIDTH 333 0
DWIDTH 6 0
BBX 2 4 4 9
BITMAP
40
80
C0
C0
ENDCHAR
STARTCHAR quoteright
ENCODING 8217
SWIDTH 333 0
DWIDTH 6 0
BBX 2 4 3 9
BITMAP
C0
C0
40
80
ENDCHAR
STARTCHAR quotesinglbase
ENCODING 8218
SWIDTH 333 0
DWIDTH 6 0
BBX 2 4 2 -2
BITMAP
C0
C0
40
80
ENDCHAR
STARTCHAR quotereversed
ENCODING 8219
SWIDTH 333 0
DWIDTH 6 0
BBX 2 4 3 9
BITMAP
C0
C0
80
40
ENDCHAR
STARTCHAR quotedblleft
ENCODING 8220
SWIDTH 556 0
DWIDTH 10 0
BBX 6 4 3 9
BITMAP
44
88
CC
CC
ENDCHAR
STARTCHAR quotedblright
ENCODING 8221
SWIDTH 556 0
DWIDTH 10 0
BBX 6 4 3 9
BITMAP
CC
CC
44
88
ENDCHAR
STARTCHAR quotedblbase
ENCODING 8222
SWIDTH 556 0
DWIDTH 10 0
BBX 6 4 2 -2
BITMAP
CC
CC
44
88
ENDCHAR
STARTCHAR uni201F
ENCODING 8223
SWIDTH 556 0
DWIDTH 10 0
BBX 6 4 3 9
BITMAP
CC
CC
88
44
ENDCHAR
STARTCHAR dagger
ENCODING 8224
SWIDTH 500 0
DWIDTH 9 0
BBX 7 16 2 -2
BITMAP
08
08
08
08
FE
10
10
10
20
20
20
20
40
40
40
40
ENDCHAR
STARTCHAR daggerdbl
ENCODING 8225
SWIDTH 500 0
DWIDTH 8 0
BBX 8 16 0 -2
BITMAP
04
04
04
04
7F
08
08
08
10
10
10
FE
20
20
20
20
ENDCHAR
STARTCHAR bullet
ENCODING 8226
SWIDTH 350 0
DWIDTH 7 0
BBX 5 5 2 3
BITMAP
70
F8
F8
F8
70
ENDCHAR
STARTCHAR ellipsis
ENCODING 8230
SWIDTH 889 0
DWIDTH 17 0
BBX 14 2 1 0
BITMAP
C30C
C30C
ENDCHAR
STARTCHAR perthousand
ENCODING 8240
SWIDTH 1000 0
DWIDTH 19 0
BBX 19 13 0 0
BITMAP
386000
77E000
E4C000
C58000
CB0000
720000
060000
0CE1C0
09D3A0
1B9720
331620
232640
61C380
ENDCHAR
STARTCHAR guilsinglleft
ENCODING 8249
SWIDTH 333 0
DWIDTH 7 0
BBX 5 6 1 2
BITMAP
18
30
60
C0
60
30
ENDCHAR
STARTCHAR guilsinglright
ENCODING 8250
SWIDTH 333 0
DWIDTH 7 0
BBX 5 6 1 2
BITMAP
60
30
18
30
60
C0
ENDCHAR
STARTCHAR fraction
ENCODING 8260
SWIDTH 167 0
DWIDTH 6 0
BBX 11 13 -2 0
BITMAP
0060
00C0
0180
0300
0200
0600
0C00
0800
1800
3000
2000
6000
C000
ENDCHAR
STARTCHAR oneinferior
ENCODING 8321
SWIDTH 300 0
DWIDTH 5 0
BBX 5 8 0 -4
BITMAP
08
38
18
10
30
20
20
F8
ENDCHAR
STARTCHAR twoinferior
ENCODING 8322
SWIDTH 300 0
DWIDTH 5 0
BBX 5 8 0 -4
BITMAP
30
58
18
10
20
40
C8
F0
ENDCHAR
STARTCHAR threeinferior
ENCODING 8323
SWIDTH 300 0
DWIDTH 5 0
BBX 6 8 0 -4
BITMAP
38
4C
08
30
18
18
90
E0
ENDCHAR
STARTCHAR uni20A5
ENCODING 8357
SWIDTH 722 0
DWIDTH 15 0
BBX 14 13 1 -2
BITMAP
0040
0040
E6E0
6EF8
7398
6398
6318
C730
C730
C634
C638
0400
0400
ENDCHAR
STARTCHAR uni20A6
ENCODING 8358
SWIDTH 667 0
DWIDTH 12 0
BBX 14 13 0 0
BITMAP
3C3C
0C08
1E08
1618
1FF0
1310
3330
3FF0
21A0
21E0
60E0
60C0
F040
ENDCHAR
STARTCHAR uni20A9
ENCODING 8361
SWIDTH 833 0
DWIDTH 15 0
BBX 15 13 2 0
BITMAP
F3CE
6184
638C
6388
6FF8
6590
65A0
6FF0
69C0
71C0
6180
6180
4100
ENDCHAR
STARTCHAR Euro
ENCODING 8364
SWIDTH 667 0
DWIDTH 12 0
BBX 14 13 0 0
BITMAP
00F4
031C
0E08
0C08
FF00
1800
3800
FF00
3000
3000
1010
1860
0F80
ENDCHAR
STARTCHAR uni20AD
ENCODING 8365
SWIDTH 667 0
DWIDTH 13 0
BBX 12 13 2 0
BITMAP
3CF0
1860
18C0
1980
3200
3400
FFF0
3600
6300
6300
6180
61C0
F3E0
ENDCHAR
STARTCHAR uni2103
ENCODING 8451
SWIDTH 1047 0
DWIDTH 19 0
BBX 20 13 1 0
BITMAP
7803D0
CC0C70
843820
843020
CC6000
786000
00E000
00C000
00C000
00C000
004040
006180
003E00
ENDCHAR
STARTCHAR uni2109
ENCODING 8457
SWIDTH 991 0
DWIDTH 18 0
BBX 18 13 1 0
BITMAP
787FC0
CC30C0
843040
843040
CC6100
786100
007E00
006200
00C200
00C000
00C000
00C000
01E000
ENDCHAR
STARTCHAR trademark
ENCODING 8482
SWIDTH 980 0
DWIDTH 17 0
BBX 15 7 1 5
BITMAP
FB8E
A98C
2154
2154
2154
2124
73AE
ENDCHAR
STARTCHAR uni212A
ENCODING 8490
SWIDTH 667 0
DWIDTH 13 0
BBX 12 13 2 0
BITMAP
3CF0
1860
18C0
1980
3200
3400
3C00
3600
6300
6300
6180
61C0
F3E0
ENDCHAR
STARTCHAR uni212B
ENCODING 8491
SWIDTH 611 0
DWIDTH 11 0
BBX 11 17 0 0
BITMAP
00C0
0120
0120
00C0
00C0
01C0
01C0
02C0
06C0
04C0
0CC0
08C0
1FC0
30C0
20C0
60C0
F1E0
ENDCHAR
STARTCHAR uni2132
ENCODING 8498
SWIDTH 611 0
DWIDTH 11 0
BBX 11 13 1 0
BITMAP
01E0
00C0
00C0
00C0
10C0
1180
1F80
2180
2180
8300
8300
C300
FF80
ENDCHAR
STARTCHAR minus
ENCODING 8722
SWIDTH 675 0
DWIDTH 11 0
BBX 9 1 1 4
BITMAP
FF80
ENDCHAR
STARTCHAR fraction
ENCODING 8725
SWIDTH 167 0
DWIDTH 6 0
BBX 11 13 -2 0
BITMAP
0060
00C0
0180
0300
0200
0600
0C00
0800
1800
3000
2000
6000
C000
ENDCHAR
STARTCHAR periodcentered
ENCODING 8729
SWIDTH 250 0
DWIDTH 5 0
BBX 2 2 2 4
BITMAP
C0
C0
ENDCHAR
STARTCHAR uni2236
ENCODING 8758
SWIDTH 333 0
DWIDTH 6 0
BBX 3 8 2 0
BITMAP
60
60
00
00
00
00
C0
C0
ENDCHAR
STARTCHAR uni2259
ENCODING 8793
SWIDTH 675 0
DWIDTH 13 0
BBX 8 8 2 2
BITMAP
0C
36
62
00
FF
00
00
FF
ENDCHAR
STARTCHAR uni225A
ENCODING 8794
SWIDTH 675 0
DWIDTH 13 0
BBX 8 8 2 2
BITMAP
22
14
18
00
FF
00
00
FF
ENDCHAR
STARTCHAR notequal
ENCODING 8800
SWIDTH 675 0
DWIDTH 13 0
BBX 8 13 2 -2
BITMAP
02
02
06
04
04
FF
08
18
FF
10
30
20
20
ENDCHAR
STARTCHAR equivalence
ENCODING 8801
SWIDTH 675 0
DWIDTH 13 0
BBX 8 5 0 2
BITMAP
FF
00
FF
00
FF
ENDCHAR
STARTCHAR uni2262
ENCODING 8802
SWIDTH 675 0
DWIDTH 13 0
BBX 8 13 0 -2
BITMAP
02
02
06
04
FF
0C
FF
18
FF
10
30
20
20
ENDCHAR
STARTCHAR lessequal
ENCODING 8804
SWIDTH 675 0
DWIDTH 13 0
BBX 9 10 1 -2
BITMAP
0180
0600
1800
6000
E000
3800
0E00
0300
0000
FF80
ENDCHAR
STARTCHAR greaterequal
ENCODING 8805
SWIDTH 675 0
DWIDTH 13 0
BBX 9 10 2 -2
BITMAP
6000
3800
0E00
0380
0300
0C00
3000
C000
0000
FF80
ENDCHAR
STARTCHAR uni226E
ENCODING 8814
SWIDTH 675 0
DWIDTH 13 0
BBX 9 13 1 -2
BITMAP
0200
0200
0600
0580
0600
1C00
6800
F800
3800
1E00
3300
2000
2000
ENDCHAR
STARTCHAR uni226F
ENCODING 8815
SWIDTH 675 0
DWIDTH 13 0
BBX 9 13 2 -2
BITMAP
0200
0200
0600
6400
3C00
0E00
0B80
1B00
1C00
3000
F000
2000
2000
ENDCHAR
STARTCHAR uni2270
ENCODING 8816
SWIDTH 675 0
DWIDTH 13 0
BBX 9 13 1 -3
BITMAP
0200
0200
0780
0600
1C00
6C00
E800
3800
1E00
1300
3000
FF80
2000
ENDCHAR
STARTCHAR uni2271
ENCODING 8817
SWIDTH 675 0
DWIDTH 13 0
BBX 9 13 2 -3
BITMAP
0200
0200
6600
3C00
0E00
0F80
0B00
1C00
3800
D000
3000
FF80
2000
ENDCHAR
STARTCHAR fi
ENCODING -1
SWIDTH 500 0
DWIDTH 9 0
BBX 10 17 -1 -4
BITMAP
0700
0D80
0C00
1800
1800
7F80
1980
1980
1900
1300
3300
3340
3380
2000
2000
E000
C000
ENDCHAR
STARTCHAR fl
ENCODING -1
SWIDTH 500 0
DWIDTH 9 0
BBX 10 17 -1 -4
BITMAP
07C0
0CC0
0CC0
18C0
1980
7F80
1980
1980
1980
1300
3300
3340
3380
2000
2000
E000
C000
ENDCHAR
ENDFONT
